<?xml version="1.0" standalone="no"?>
<!DOCTYPE svg PUBLIC "-//W3C//DTD SVG 20010904//EN"
 "http://www.w3.org/TR/2001/REC-SVG-20010904/DTD/svg10.dtd">
<svg version="1.0" xmlns="http://www.w3.org/2000/svg"
 width="800.000000pt" height="800.000000pt" viewBox="0 0 800.000000 800.000000"
 preserveAspectRatio="xMidYMid meet">

<g transform="translate(0.000000,800.000000) scale(0.100000,-0.100000)"
fill="#000000" stroke="none">
<path d="M3685 7951 c-63 -50 -155 -146 -183 -190 -9 -15 -30 -44 -48 -66 -17
-22 -46 -65 -64 -95 l-32 -55 7 160 c3 88 7 171 8 185 1 19 -3 25 -18 25 -18
0 -21 -11 -32 -110 -21 -192 -10 -310 29 -310 9 0 38 34 69 80 117 179 181
256 335 403 17 17 18 22 2 22 -7 -1 -40 -22 -73 -49z"/>
<path d="M4260 7910 c-42 -12 -110 -50 -110 -62 0 -6 7 -20 16 -29 15 -17 15
-26 -11 -121 -16 -57 -34 -107 -42 -111 -25 -15 -53 -51 -53 -68 0 -50 88 -56
184 -11 48 22 75 43 106 83 53 67 81 77 95 34 7 -22 17 -31 37 -33 28 -3 75
17 103 44 21 22 29 13 14 -19 -15 -34 -4 -89 22 -106 19 -11 24 -10 42 8 25
24 15 41 -13 23 -18 -11 -20 -9 -20 21 0 50 59 211 85 229 6 4 74 8 153 8 78
0 142 4 142 9 0 15 -42 21 -168 21 -117 0 -122 1 -111 19 12 18 7 51 -8 51 -4
0 -17 -17 -28 -38 -18 -34 -25 -37 -70 -42 -57 -6 -75 -15 -75 -36 0 -16 10
-17 65 -4 22 5 41 8 42 6 2 -2 -5 -23 -15 -47 -14 -32 -34 -54 -75 -82 -31
-21 -64 -37 -74 -35 -13 2 -7 9 22 24 43 22 54 46 35 69 -18 22 -48 18 -75 -9
-31 -31 -75 -40 -75 -15 0 23 -47 79 -67 79 -10 0 -6 11 16 35 36 41 38 55 14
84 -19 23 -63 32 -103 21z m80 -44 c0 -7 -16 -26 -35 -40 -34 -27 -44 -25 -25
4 9 15 -4 40 -22 40 -5 0 -17 -20 -28 -45 -11 -25 -22 -45 -24 -45 -3 0 -3 7
0 15 4 8 1 22 -6 30 -10 12 -6 18 22 35 39 24 118 28 118 6z m9 -135 c12 -12
17 -28 14 -43 -4 -22 -15 -28 -90 -47 -47 -12 -87 -20 -89 -18 -2 1 9 28 23
59 17 39 32 58 47 61 48 10 77 6 95 -12z m-33 -130 c-41 -43 -119 -81 -178
-88 l-53 -6 19 22 c13 15 23 18 30 11 16 -16 26 -12 26 14 0 20 10 26 78 49
102 33 112 33 78 -2z"/>
<path d="M3739 7858 c-25 -17 -57 -48 -70 -67 -13 -20 -29 -40 -36 -44 -17
-11 -59 -86 -67 -121 -10 -42 11 -94 44 -111 63 -32 135 -10 213 66 60 58 68
82 36 102 -23 14 -61 2 -110 -35 -53 -41 -67 -72 -18 -39 47 31 100 53 108 46
10 -11 -91 -94 -136 -111 -24 -10 -53 -14 -68 -10 -21 5 -25 12 -25 46 0 50
14 81 66 151 54 70 111 121 132 117 13 -3 16 -13 14 -46 -3 -36 -1 -42 16 -42
34 0 44 68 16 108 -22 31 -61 28 -115 -10z"/>
<path d="M3135 7866 c-67 -21 -120 -53 -135 -80 -22 -42 0 -68 111 -126 54
-29 100 -58 103 -66 8 -20 -37 -40 -126 -55 -99 -16 -128 -6 -128 46 0 38 -15
47 -25 14 -10 -32 3 -67 31 -86 69 -45 284 13 284 78 0 25 -65 78 -135 110
-34 15 -68 35 -75 44 -12 15 -12 19 5 32 31 24 96 51 140 58 36 7 38 6 21 -7
-19 -15 -15 -38 7 -38 7 0 28 13 47 29 30 25 33 31 21 45 -16 19 -87 21 -146
2z"/>
<path d="M4763 7710 c-27 -11 -56 -53 -51 -76 5 -27 35 -41 57 -27 17 11 21
10 26 -6 3 -11 12 -22 19 -24 24 -9 146 78 146 104 0 10 -59 -21 -91 -48 -25
-21 -42 -17 -27 7 11 17 10 25 -2 48 -17 29 -42 36 -77 22z m22 -50 c-10 -11
-23 -20 -28 -20 -6 0 -2 9 8 20 10 11 23 20 28 20 6 0 2 -9 -8 -20z"/>
<path d="M3876 7247 c3 -10 9 -15 12 -12 3 3 0 11 -7 18 -10 9 -11 8 -5 -6z"/>
<path d="M6100 7156 c0 -2 7 -7 16 -10 8 -3 12 -2 9 4 -6 10 -25 14 -25 6z"/>
<path d="M1790 7061 c0 -6 4 -13 10 -16 6 -3 7 1 4 9 -7 18 -14 21 -14 7z"/>
<path d="M2420 7013 c0 -6 8 -17 18 -24 16 -13 16 -13 2 6 -8 11 -16 22 -17
24 -2 2 -3 0 -3 -6z"/>
<path d="M4225 6206 c-184 -50 -341 -148 -525 -328 -113 -109 -174 -193 -229
-309 -86 -183 -120 -406 -78 -526 l18 -51 -28 -54 c-31 -59 -36 -119 -14 -161
13 -24 12 -28 -13 -58 -15 -17 -30 -44 -33 -59 -5 -25 -10 -28 -64 -34 -82
-10 -197 -70 -284 -148 -70 -64 -118 -96 -340 -225 -182 -107 -315 -170 -370
-178 -163 -22 -387 -126 -554 -257 -79 -62 -84 -64 -128 -47 -35 14 -126 28
-136 22 -4 -2 2 -12 13 -21 l21 -17 -26 -25 c-24 -22 -35 -25 -108 -25 -98 1
-131 16 -170 81 -23 38 -31 44 -61 44 -33 0 -35 3 -58 61 -26 68 -60 112 -81
103 -42 -16 -61 -137 -31 -201 13 -25 14 -37 5 -46 -16 -16 -14 -37 6 -44 23
-8 63 -44 63 -56 0 -6 -18 -33 -39 -62 -34 -45 -50 -56 -132 -90 -215 -90
-344 -176 -381 -254 -20 -41 -21 -51 -9 -69 6 -11 28 -1 95 40 48 29 80 54 72
56 -17 4 -88 -28 -124 -54 -15 -12 -22 -13 -22 -4 0 16 128 140 144 140 7 0
18 -18 25 -40 6 -22 17 -41 24 -41 7 -1 19 -2 27 -3 21 -2 16 -17 -29 -89 -45
-72 -65 -144 -56 -199 4 -21 9 -38 11 -38 10 0 50 41 101 103 30 37 59 67 63
67 21 0 13 -40 -18 -98 -32 -58 -34 -68 -30 -133 4 -68 14 -88 45 -89 12 0
107 170 98 178 -13 13 -55 -33 -76 -82 -12 -31 -27 -56 -32 -56 -21 0 16 195
42 223 4 4 26 -9 48 -28 23 -19 43 -35 46 -35 16 0 -11 45 -39 68 -32 25 -45
52 -26 52 5 0 28 -17 51 -39 39 -36 42 -37 52 -19 16 29 25 15 38 -64 47 -269
96 -300 140 -88 11 59 21 128 21 155 1 28 7 60 14 73 16 31 192 161 225 168
40 8 83 34 116 69 20 22 44 35 71 39 37 7 43 5 58 -19 14 -22 23 -26 44 -20
36 8 61 35 68 70 3 16 7 32 9 35 8 12 147 59 255 85 189 45 367 132 490 238
96 83 511 257 614 257 32 0 67 -45 143 -185 86 -158 142 -249 184 -301 35 -41
47 -67 78 -165 6 -21 33 -77 60 -125 34 -65 53 -90 69 -92 17 -3 33 -27 71
-107 27 -57 52 -118 56 -134 5 -22 -5 -63 -34 -148 -22 -65 -50 -158 -62 -207
-11 -49 -38 -128 -59 -175 -21 -47 -43 -104 -50 -126 -19 -59 -45 -91 -89
-108 -21 -9 -42 -24 -46 -34 -4 -10 -11 -110 -16 -223 -6 -138 -14 -217 -24
-243 -8 -20 -15 -52 -15 -70 0 -24 -9 -41 -30 -62 -24 -23 -30 -37 -30 -69 0
-36 -7 -48 -58 -101 -73 -75 -146 -165 -169 -208 -12 -23 -17 -59 -19 -134 -1
-89 -4 -108 -28 -152 -31 -60 -31 -61 -8 -61 9 0 25 14 34 30 9 17 23 30 30
30 7 0 81 -12 163 -26 189 -34 275 -40 286 -23 6 10 16 10 47 1 48 -15 175
-16 151 -2 -40 24 -370 79 -482 81 -44 0 -100 17 -64 18 10 1 66 16 125 35 59
18 128 38 154 44 25 6 71 23 102 37 39 18 67 24 89 21 17 -3 50 -8 72 -11 121
-17 264 -70 383 -143 65 -40 73 -48 68 -68 -6 -21 -3 -24 22 -24 24 0 31 7 51
53 18 41 24 48 30 34 12 -33 58 48 107 194 25 74 49 138 53 142 4 4 13 2 19
-5 7 -9 3 -34 -14 -88 -41 -123 -60 -330 -31 -330 21 0 55 42 40 47 -46 16 58
370 114 389 30 10 131 51 248 99 61 24 115 45 122 45 6 0 66 -65 132 -145 67
-80 124 -145 127 -145 4 0 -25 50 -36 60 -14 14 -32 40 -27 40 15 0 205 -245
193 -248 -8 -2 -54 4 -102 12 -115 20 -363 21 -475 1 -86 -15 -190 -51 -231
-79 -28 -20 -13 -20 40 -2 22 8 98 25 169 37 220 39 504 30 637 -21 26 -10 28
-14 23 -50 l-5 -40 59 0 58 0 11 43 c6 23 18 67 27 97 20 71 18 119 -8 181
-20 47 -21 60 -15 198 8 162 -4 267 -35 311 -13 18 -20 53 -24 125 -7 116 -49
361 -71 419 -8 20 8 21 61 0 l41 -15 -4 -58 c-4 -49 -1 -61 19 -84 13 -15 42
-33 64 -40 38 -13 40 -16 45 -63 9 -92 62 -134 168 -134 35 0 44 -4 51 -23 5
-13 25 -38 45 -55 36 -31 39 -32 130 -32 77 0 98 3 117 19 13 11 22 22 19 24
-3 3 -38 2 -79 -3 -106 -14 -191 12 -191 57 0 29 -37 50 -104 57 -93 10 -110
27 -116 113 l-5 68 -43 6 c-56 7 -83 35 -89 93 -5 45 -5 46 22 46 46 0 23 22
-54 54 -87 35 -111 65 -111 139 0 42 2 47 23 48 15 0 0 11 -45 33 -37 19 -76
36 -87 39 -34 8 -54 54 -61 138 -7 80 -26 119 -57 119 -8 0 -28 13 -44 29 -25
26 -29 37 -30 88 0 32 -4 66 -8 76 -4 10 -36 42 -71 71 -82 66 -94 89 -79 151
6 25 15 48 19 50 5 3 29 -4 55 -15 26 -11 57 -20 69 -20 29 0 84 -57 96 -99 9
-34 3 -121 -9 -121 -16 0 -31 26 -32 55 0 27 -1 28 -9 8 -9 -21 -11 -22 -44
-8 -52 22 -54 19 -11 -18 33 -28 39 -40 38 -70 -1 -21 3 -34 8 -31 5 3 9 13 9
22 1 41 17 44 39 8 18 -29 27 -35 45 -30 17 4 27 -1 40 -20 9 -14 22 -26 29
-26 8 0 24 -12 38 -26 22 -24 24 -34 24 -129 1 -57 4 -107 8 -111 3 -4 12 5
18 20 15 32 33 33 75 4 44 -30 66 -73 99 -191 21 -73 25 -101 16 -111 -9 -11
-2 -14 39 -19 83 -10 100 -28 165 -169 28 -61 30 -62 115 -72 58 -6 90 -41
113 -121 10 -33 21 -71 25 -84 12 -42 27 -18 27 44 l1 60 37 3 c21 2 52 -4 69
-12 17 -9 39 -16 48 -16 26 0 48 -31 56 -76 8 -56 20 -74 34 -54 16 23 5 99
-20 132 -21 28 -21 30 -4 49 9 10 24 19 33 19 9 0 43 -29 76 -65 60 -64 85
-79 85 -50 0 13 -56 86 -72 93 -14 6 -8 24 15 43 33 28 53 23 84 -20 15 -22
44 -48 63 -59 31 -16 35 -23 33 -55 -3 -43 5 -46 36 -13 15 16 21 31 17 44 -5
15 5 29 44 62 48 40 51 45 45 79 -5 32 0 44 50 110 61 82 65 103 34 167 -18
39 -19 45 -5 66 8 13 18 54 22 91 6 61 4 71 -15 98 l-22 30 20 26 c38 47 23
152 -28 197 -26 24 -27 32 0 39 17 5 20 12 17 54 -3 43 -6 48 -28 51 -60 9
-97 84 -125 253 -3 20 -17 46 -31 60 -14 13 -32 36 -40 51 -13 26 -62 48 -106
48 -20 0 -25 -29 -5 -34 6 -2 31 -9 55 -15 62 -17 54 -35 -13 -27 -34 4 -55 2
-56 -4 -6 -48 6 -67 57 -86 24 -9 44 -18 44 -20 0 -2 -9 -21 -20 -42 -18 -34
-19 -45 -9 -98 6 -32 19 -68 30 -80 25 -27 24 -30 -11 -71 -16 -18 -30 -38
-30 -43 0 -17 63 -114 88 -136 l23 -21 -25 -16 c-49 -32 -50 -50 -11 -128 19
-38 35 -74 35 -78 0 -5 -12 -12 -27 -16 -61 -15 -67 -42 -24 -101 45 -61 44
-75 -9 -95 -24 -9 -46 -21 -48 -27 -1 -5 4 -27 12 -47 15 -34 14 -40 -5 -86
-21 -48 -22 -49 -58 -43 -33 5 -41 2 -64 -25 -26 -31 -51 -40 -62 -21 -11 18
-41 11 -83 -20 -39 -28 -47 -30 -135 -30 -91 0 -94 1 -108 26 -27 52 -66 74
-127 74 l-57 0 -34 81 c-45 105 -105 159 -177 159 -22 0 -24 3 -24 54 0 30 -9
84 -21 121 -24 78 -78 138 -137 152 l-37 9 -3 59 c-1 33 -4 70 -7 82 -6 28
-62 93 -79 93 -7 0 -21 9 -31 20 -10 11 -25 19 -34 18 -14 -3 -17 13 -21 100
l-5 103 -41 37 c-22 20 -50 45 -62 54 -19 16 -22 28 -22 101 0 71 -4 89 -23
118 -21 32 -125 98 -155 99 -25 0 -6 -25 42 -56 96 -64 98 -68 94 -167 -3 -78
-1 -90 16 -103 26 -18 11 -18 -48 2 -40 14 -51 23 -67 58 -12 26 -19 64 -19
103 0 64 -7 96 -19 89 -4 -3 -4 -40 0 -83 4 -42 6 -80 3 -82 -3 -3 -14 0 -24
7 -27 16 -30 15 -30 -9 0 -14 10 -24 30 -32 35 -13 35 -18 13 -101 -15 -58
-15 -64 1 -98 13 -28 33 -45 85 -72 l68 -36 5 -90 c7 -109 21 -135 83 -152
l45 -12 0 -66 c0 -125 27 -168 121 -196 55 -17 59 -20 59 -48 0 -58 -10 -76
-40 -76 -42 0 -77 35 -101 100 -21 57 -45 98 -120 205 -20 28 -42 68 -49 90
-17 55 -53 123 -115 225 -29 47 -76 129 -104 183 -48 93 -51 102 -45 150 4 29
11 55 17 58 5 4 7 14 4 23 -4 9 3 56 14 104 24 98 21 171 -8 200 -10 10 -39
33 -65 51 l-48 32 0 62 c0 34 -9 100 -20 147 -10 46 -17 86 -15 89 3 2 28 -13
57 -33 29 -20 61 -36 71 -36 20 0 68 -23 107 -51 14 -10 43 -23 65 -28 22 -5
77 -23 122 -40 46 -17 89 -28 98 -25 21 9 113 -25 136 -49 16 -18 22 -19 28
-8 7 11 16 8 43 -13 19 -14 40 -26 46 -26 6 0 25 -18 43 -40 17 -21 49 -51 69
-65 33 -23 42 -25 61 -15 12 7 39 10 60 7 30 -4 39 -2 39 10 0 10 6 13 16 9
66 -25 172 -39 354 -46 347 -14 439 -40 508 -144 55 -82 91 -174 107 -275 22
-126 66 -186 88 -116 5 17 12 75 16 131 9 122 15 133 46 104 15 -14 37 -65 61
-141 21 -65 42 -119 46 -119 31 0 50 167 29 250 -5 19 -12 59 -15 88 l-5 53
35 -30 c19 -17 39 -31 45 -31 5 0 35 -27 65 -60 61 -66 103 -94 152 -105 29
-6 32 -4 32 16 0 35 -37 104 -86 158 -121 135 -77 193 61 81 40 -33 77 -60 81
-60 4 0 13 -8 20 -17 11 -16 13 -16 24 9 11 22 9 34 -6 73 -38 95 -117 162
-284 242 -79 37 -116 66 -178 136 l-23 26 35 23 c20 13 34 28 32 33 -2 6 9 35
25 65 30 57 37 109 19 154 -5 14 -14 26 -20 26 -5 0 -39 -25 -75 -56 -50 -42
-69 -53 -79 -45 -10 8 -21 1 -44 -28 -24 -30 -48 -45 -104 -66 -40 -14 -103
-40 -139 -57 -79 -37 -63 -38 -368 23 -29 6 -90 28 -135 49 -44 21 -108 46
-141 55 -33 10 -99 37 -148 61 l-87 44 -140 -7 c-122 -5 -140 -4 -140 9 0 9 7
21 15 28 22 18 19 27 -17 44 -42 21 -50 20 -78 -9 -23 -24 -60 -32 -94 -19
-21 8 -20 20 4 44 24 24 25 34 4 54 -21 21 -52 20 -92 -4 -39 -24 -63 -25
-102 -5 -37 19 -37 26 0 48 34 20 38 43 13 63 -25 19 -57 17 -98 -6 -43 -24
-68 -25 -86 -4 -7 8 -33 26 -58 40 -25 13 -95 54 -156 92 -86 52 -114 75 -128
104 -10 20 -33 52 -52 73 -60 63 -45 130 50 222 46 46 65 72 65 90 0 16 18 45
50 81 57 64 148 237 155 297 3 22 11 62 17 89 14 63 5 130 -25 191 -14 28 -33
78 -42 112 -21 76 -63 123 -132 149 -26 10 -49 18 -50 19 -2 1 -9 35 -17 76
-22 117 -42 156 -93 185 -53 32 -144 40 -218 20z m197 -43 c65 -32 96 -180 65
-310 -8 -35 -12 -63 -8 -63 10 0 50 67 57 95 7 29 18 28 69 -7 60 -41 91 -100
115 -221 6 -31 15 -55 20 -52 21 13 32 -41 28 -134 -5 -103 -31 -185 -91 -286
-16 -27 -30 -56 -32 -64 -4 -30 -107 -112 -122 -97 -3 3 17 28 43 56 57 60 73
90 21 41 -19 -18 -40 -30 -45 -27 -6 3 -23 -15 -38 -41 -73 -126 -146 -197
-235 -228 -50 -18 -263 -55 -310 -55 -43 1 -60 16 -135 120 -64 89 -94 147
-94 184 0 40 66 211 81 211 10 0 13 -9 11 -30 -2 -16 -4 -73 -5 -125 -1 -85 2
-100 26 -147 61 -117 186 -157 313 -99 60 28 184 112 184 125 0 4 -21 22 -47
39 -27 17 -80 60 -118 94 -73 66 -180 128 -251 147 -23 6 -45 18 -48 27 -4 10
-13 13 -25 9 -36 -11 -32 14 18 118 43 90 55 107 87 122 55 26 104 22 131 -10
33 -38 28 -51 -8 -21 -17 14 -40 26 -51 26 -17 0 -15 -4 13 -23 34 -23 40 -43
24 -79 -4 -10 -3 -18 3 -18 5 0 15 14 22 30 7 17 16 30 20 30 4 0 10 -13 14
-30 7 -38 21 -38 34 -1 13 36 2 87 -28 136 -32 51 -61 68 -104 59 -44 -8 -45
1 -5 49 26 32 36 37 72 37 51 -1 69 -13 102 -71 20 -35 25 -39 25 -21 0 12 -7
38 -15 58 -16 39 -67 67 -103 57 -33 -8 -27 17 13 61 31 34 39 38 67 32 47 -9
148 -59 182 -90 l30 -26 12 29 c7 16 17 32 23 35 6 4 11 14 11 22 0 8 -4 12
-10 9 -6 -4 -11 26 -12 82 -2 75 -2 79 -5 26 -2 -35 -8 -63 -12 -63 -5 0 -16
30 -25 67 l-17 68 25 20 c14 12 26 24 26 27 0 9 -65 -14 -128 -46 -28 -14 -58
-26 -67 -26 -8 0 -15 -5 -15 -11 0 -6 -30 -43 -66 -82 -271 -294 -439 -692
-470 -1114 -4 -51 -10 -93 -14 -93 -4 0 -29 42 -54 93 -54 108 -66 170 -66
357 0 130 18 279 44 365 18 57 20 84 7 70 -5 -6 -39 -86 -77 -180 l-69 -170 0
-127 c0 -139 -9 -132 -20 15 -17 222 80 496 234 662 62 67 204 196 209 190 3
-2 -3 -17 -12 -32 -10 -15 2 -6 25 20 48 55 125 117 145 117 8 0 -3 -26 -30
-68 -102 -158 -186 -357 -241 -573 -20 -80 -75 -365 -75 -391 0 -17 16 -7 16
10 2 72 94 462 140 594 73 210 210 441 284 478 109 55 242 69 312 33z m-84
-155 c12 -16 42 -131 35 -138 -2 -3 -14 9 -26 25 -12 17 -34 43 -49 58 -33 34
-33 36 -10 53 22 17 37 17 50 2z m-9 -144 c18 -25 30 -48 28 -50 -2 -2 -22 10
-45 27 -23 16 -50 31 -62 32 -25 2 -27 24 -2 30 39 10 50 5 81 -39z m-839
-650 c-16 -82 -20 -94 -31 -94 -13 0 -11 21 7 102 11 46 19 67 26 60 6 -6 6
-30 -2 -68z m490 20 c69 -36 105 -61 203 -142 42 -35 77 -70 77 -78 0 -8 -2
-14 -4 -14 -7 0 -246 130 -289 157 -68 43 -119 94 -107 108 13 16 43 8 120
-31z m-486 -221 c9 -82 50 -200 96 -276 61 -100 61 -100 -79 -118 -110 -15
-141 -9 -141 29 0 29 32 72 53 72 7 0 25 -7 41 -15 36 -19 36 -19 36 10 0 15
-6 25 -15 25 -24 0 -83 59 -90 89 -6 26 19 111 33 111 3 0 19 -12 35 -27 33
-31 32 -35 7 58 -13 44 -8 99 9 99 4 0 11 -26 15 -57z m532 6 c34 -21 104 -93
104 -108 0 -13 -22 -29 -52 -36 -74 -19 -250 116 -203 155 39 32 87 29 151
-11z m498 -76 c-17 -21 -63 -60 -103 -88 -66 -45 -71 -50 -47 -53 23 -3 26 -8
26 -41 l0 -39 -42 5 c-29 3 -50 0 -63 -10 -27 -21 -12 -33 17 -13 12 9 26 16
31 16 14 0 127 -112 122 -120 -3 -5 -38 -11 -79 -15 -80 -8 -94 -4 -159 48
-40 31 -41 35 -21 105 9 33 -21 29 -47 -8 -26 -35 -40 -31 -30 8 7 24 15 29
82 43 101 21 210 95 260 176 20 31 55 46 73 31 6 -4 -3 -23 -20 -45z m-743
-59 c39 -69 135 -174 183 -199 44 -24 46 -40 5 -54 -53 -18 -74 -13 -135 33
-96 70 -104 86 -104 188 0 48 4 88 9 88 5 0 24 -25 42 -56z m53 -275 c-6 -11
-33 -1 -71 28 -31 23 -42 51 -26 67 9 8 104 -85 97 -95z m413 -40 c10 0 13 -3
6 -6 -17 -6 -133 47 -133 61 0 7 5 17 11 23 8 8 23 -2 55 -33 24 -24 51 -44
61 -45z m-207 32 c0 -29 -1 -30 -30 -20 -44 16 -37 28 28 48 1 1 2 -12 2 -28z
m-579 -22 c88 1 89 1 89 -23 0 -29 -17 -43 -33 -27 -6 6 -15 11 -20 11 -6 0 2
-12 17 -27 30 -30 33 -40 40 -140 4 -55 2 -74 -9 -83 -8 -7 -15 -24 -16 -39
l0 -26 -10 25 c-7 16 -7 32 0 47 8 18 8 23 -4 23 -11 0 -15 -12 -15 -42 0 -77
11 -118 31 -118 10 0 21 5 25 11 14 23 21 -9 14 -61 -5 -30 -9 -76 -9 -102 -1
-26 -5 -50 -11 -53 -5 -3 -23 21 -40 55 -17 33 -32 60 -34 60 -2 0 -1 -11 2
-25 6 -35 -6 -31 -22 5 -8 21 -30 40 -66 59 -30 16 -56 34 -58 40 -5 14 72 15
99 1 29 -16 23 3 -13 37 -43 40 -114 87 -161 107 -58 24 -42 -2 31 -49 34 -22
60 -44 59 -49 -3 -8 -43 -21 -234 -74 l-72 -20 -35 62 c-41 72 -59 91 -82 82
-14 -5 -16 -16 -11 -60 3 -29 11 -63 19 -75 20 -32 3 -49 -88 -86 -45 -18
-109 -46 -143 -64 -61 -31 -111 -40 -111 -21 0 6 10 15 23 20 l22 9 -23 0
c-58 2 -126 -61 -125 -115 1 -30 -5 -39 -39 -65 -125 -90 -511 -242 -523 -206
-2 7 -11 39 -20 71 -13 48 -27 69 -71 112 -30 29 -54 55 -54 58 0 2 67 41 149
85 146 79 203 100 270 101 18 0 72 17 120 39 143 64 134 65 129 -14 -3 -37
-11 -71 -18 -75 -8 -5 -2 -10 15 -14 15 -4 29 -6 30 -4 12 14 34 71 39 103 15
83 26 113 46 118 12 3 24 -3 34 -17 16 -21 16 -21 10 5 -4 21 0 31 22 48 36
28 44 27 44 -9 0 -23 -4 -30 -20 -30 -11 0 -20 -5 -20 -11 0 -6 12 -9 28 -7
25 3 27 6 25 50 -1 43 1 47 29 59 28 11 33 11 49 -10 30 -37 24 -69 -21 -112
-41 -39 -89 -58 -150 -60 -29 0 -31 -2 -14 -9 11 -4 40 -4 65 1 24 4 47 8 51
9 15 0 90 74 104 103 15 27 14 31 -10 67 l-25 38 80 52 c109 70 109 70 109 25
0 -27 8 -44 29 -66 35 -35 57 -37 65 -6 3 13 21 41 39 62 32 37 36 39 60 26
39 -21 83 -5 140 50 l50 48 -7 55 c-5 47 -4 55 11 59 10 2 22 2 26 -1 5 -2 49
-4 98 -3z m269 -21 c11 -12 20 -30 20 -39 0 -10 7 -24 15 -33 19 -19 19 -36
-1 -36 -39 0 -72 38 -88 103 -5 22 -3 27 13 27 11 0 29 -10 41 -22z m87 12
c12 0 93 -122 93 -141 0 -6 -7 -8 -16 -5 -9 3 -19 6 -24 6 -11 0 -110 127
-110 141 0 7 9 9 23 5 12 -3 27 -6 34 -6z m123 0 c20 -6 21 -8 5 -8 -11 0 -31
4 -45 8 -20 6 -21 8 -5 8 11 0 31 -4 45 -8z m-635 -24 c30 -45 -4 -101 -92
-152 -39 -24 -44 -24 -71 -10 -47 24 -57 81 -22 116 27 27 65 11 54 -22 -4
-15 -2 -19 7 -16 8 3 15 14 17 26 2 16 -4 25 -22 32 -38 14 -32 28 17 38 72
17 95 14 112 -12z m743 -142 c-1 -154 -11 -184 -46 -143 -100 118 -112 140
-62 114 56 -29 53 -16 -19 83 -28 39 -51 74 -51 78 0 5 40 8 90 6 l90 -3 -2
-135z m454 126 c36 -11 105 -46 155 -77 144 -92 136 -83 119 -116 -23 -42 -66
-177 -73 -224 -3 -24 -10 -43 -15 -43 -17 0 -64 38 -137 111 l-72 72 17 64 c9
35 15 66 12 69 -3 2 -14 -25 -23 -61 -10 -37 -23 -64 -29 -62 -6 2 -12 29 -14
61 -1 31 -9 70 -17 87 -18 33 -30 39 -22 9 4 -15 0 -20 -14 -20 -13 0 -19 7
-19 24 0 12 -11 35 -25 50 -31 33 -32 54 -2 66 36 14 91 11 159 -10z m-347
-31 c44 -39 44 -56 0 -75 -59 -24 -65 -20 -65 39 0 78 10 84 65 36z m-1069
-23 c-4 -18 -2 -44 2 -57 8 -20 3 -31 -24 -65 -19 -23 -34 -48 -34 -58 0 -24
-27 -19 -45 8 -25 38 -30 91 -11 118 13 19 102 87 115 88 2 0 0 -15 -3 -34z
m722 -66 c33 0 163 -136 187 -195 9 -22 24 -53 32 -70 9 -16 31 -60 49 -97 32
-63 93 -128 121 -128 38 0 33 62 -18 201 -46 123 -61 149 -92 149 -18 0 -19 5
-13 46 11 84 29 85 89 6 44 -56 77 -90 77 -79 0 4 -9 24 -21 46 -11 22 -19 48
-17 58 4 24 71 -118 88 -187 24 -97 15 -315 -13 -354 -7 -9 -29 -19 -50 -23
-37 -6 -37 -5 -38 28 l-1 34 -20 -45 -21 -44 -34 69 c-29 56 -100 163 -123
185 -3 3 -31 36 -63 73 -74 88 -91 121 -77 147 16 29 -7 107 -36 127 -13 8
-32 13 -43 10 -25 -6 -51 10 -51 32 0 26 9 31 37 20 13 -5 36 -9 51 -9z m573
-51 c15 -28 2 -39 -56 -50 -56 -11 -88 2 -83 34 6 39 119 52 139 16z m-566
-29 c11 -12 15 -26 10 -37 -6 -16 -8 -16 -15 3 -5 12 -13 25 -19 29 -13 7 -15
25 -3 25 5 0 17 -9 27 -20z m-36 -24 c17 -32 9 -43 -42 -57 -23 -6 -69 -20
-101 -31 -70 -23 -86 -19 -86 21 0 37 16 46 91 55 31 4 65 14 75 21 28 21 49
18 63 -9z m1124 -10 c3 -7 -1 -26 -8 -42 -7 -16 -18 -44 -25 -61 -14 -37 -18
-39 -45 -19 -18 13 -18 15 5 72 13 33 28 62 33 66 13 8 34 0 40 -16z m-513
-14 c0 -4 -5 -13 -11 -19 -11 -11 47 -67 102 -100 31 -18 119 -159 119 -188 0
-11 -11 -37 -24 -59 -23 -36 -23 -41 -10 -78 17 -48 17 -48 4 -48 -5 0 -10 6
-10 13 0 7 -6 21 -13 31 -17 23 -42 12 -57 -25 -21 -49 -40 -36 -20 15 11 29
-2 59 -45 107 -32 37 -50 27 -66 -35 -10 -40 -48 -102 -49 -80 0 6 7 31 15 55
27 74 20 230 -16 362 -8 31 -8 42 3 48 17 11 78 12 78 1z m584 -25 c13 -9 16
-20 11 -40 -9 -36 -25 -34 -25 3 0 20 -5 30 -15 30 -8 0 -15 5 -15 10 0 14 23
12 44 -3z m-2013 -80 c-14 -14 -42 20 -34 41 4 10 10 8 25 -8 15 -16 17 -25 9
-33z m854 36 c-3 -10 -7 -20 -8 -23 -3 -7 41 -75 172 -269 61 -90 108 -168
105 -173 -3 -4 -17 -8 -31 -8 -16 0 -38 -13 -59 -35 -20 -22 -42 -35 -58 -35
-13 0 -36 -4 -51 -10 -20 -8 -27 -7 -31 5 -8 19 -53 19 -78 0 -35 -26 -45 -17
-70 64 -40 125 -55 204 -62 310 -7 96 -6 99 16 106 29 9 36 1 55 -74 33 -130
133 -384 135 -343 0 7 -29 93 -64 190 -76 211 -83 237 -62 245 8 3 24 -2 35
-11 19 -17 30 -36 143 -247 65 -119 85 -147 74 -103 -23 97 -186 377 -220 378
-10 0 -45 -7 -78 -16 -60 -15 -93 -9 -66 13 20 17 139 52 177 52 28 1 32 -2
26 -16z m292 1 c2 -6 -9 -14 -24 -17 -34 -6 -40 -2 -23 18 14 17 41 17 47 -1z
m955 -27 c-1 -9 -14 -41 -28 -72 -21 -48 -27 -55 -39 -45 -20 16 -19 35 5 100
11 30 20 56 20 59 0 2 10 -3 23 -12 12 -8 21 -22 19 -30z m-1522 -2 c0 -5 -5
-3 -10 5 -5 8 -10 20 -10 25 0 6 5 3 10 -5 5 -8 10 -19 10 -25z m609 -54 c11
-27 21 -55 21 -61 0 -8 -39 -30 -55 -30 -2 0 -16 25 -31 56 -27 55 -27 57 -9
70 34 25 51 17 74 -35z m-1145 10 c14 -26 14 -30 -3 -45 -24 -22 -36 -20 -49
9 -15 33 -15 52 1 58 26 11 37 6 51 -22z m-498 -76 c-12 -56 -31 -105 -41
-105 -3 0 -5 31 -5 70 0 58 3 72 22 90 32 29 38 13 24 -55z m830 29 c104 -47
156 -91 190 -160 23 -48 29 -78 40 -207 7 -84 11 -154 9 -155 -8 -8 -95 60
-130 100 -58 67 -138 193 -199 312 -31 60 -56 113 -56 117 0 6 42 26 61 28 4
1 42 -15 85 -35z m314 -270 c11 -48 29 -107 40 -132 11 -24 20 -52 20 -62 0
-10 10 -24 22 -32 25 -17 17 -38 -16 -38 -25 0 -33 21 -77 199 -24 101 -44
310 -33 348 6 21 10 -2 15 -84 5 -62 17 -151 29 -199z m1200 241 c0 -52 -3
-65 -15 -65 -20 0 -35 40 -35 91 0 35 3 39 25 39 24 0 25 -2 25 -65z m402 53
c7 -19 -34 -118 -48 -118 -7 0 -18 9 -25 21 -17 33 15 109 46 109 13 0 25 -5
27 -12z m372 -27 c3 -5 -3 -19 -13 -32 -52 -67 -90 -182 -92 -277 -2 -97 -21
-59 -21 44 -1 80 2 96 31 159 41 90 79 132 95 106z m-126 -87 c-36 -75 -42
-98 -46 -171 l-5 -85 -36 36 c-20 20 -42 36 -48 36 -21 0 -22 46 -3 124 30
119 37 130 90 137 98 13 94 20 48 -77z m202 71 c17 -9 30 -20 30 -25 0 -5 -18
-36 -39 -70 -21 -33 -45 -83 -51 -111 -12 -49 -9 -148 6 -210 5 -22 2 -27 -18
-32 -41 -11 -53 14 -51 104 4 103 16 155 58 247 34 73 39 105 11 66 -49 -65
-84 -178 -93 -296 -7 -91 -23 -94 -23 -5 1 119 36 233 98 315 28 37 32 38 72
17z m1280 -15 c0 -29 -30 -100 -43 -100 -15 0 -47 31 -47 46 0 13 65 74 80 74
6 0 10 -9 10 -20z m-2784 -65 c8 -45 2 -52 -30 -28 -44 32 -45 63 -1 63 20 0
25 -7 31 -35z m802 17 c7 -5 15 -26 19 -46 6 -35 4 -38 -18 -34 -20 2 -24 9
-27 46 -3 42 2 49 26 34z m800 -8 c-2 -12 31 -26 157 -65 88 -27 174 -55 190
-63 17 -8 82 -20 145 -26 63 -7 128 -14 143 -17 30 -6 46 -28 31 -43 -5 -5
-80 0 -169 11 -88 10 -218 26 -290 34 -71 9 -139 14 -150 12 -34 -5 75 -25
257 -47 95 -11 210 -26 256 -31 l83 -11 -3 -92 c-3 -106 18 -98 -178 -73 -69
9 -215 21 -325 27 -243 15 -264 21 -265 79 0 20 4 22 26 17 128 -32 456 -52
619 -37 79 7 77 7 -75 14 -85 4 -207 10 -270 13 -156 7 -281 23 -298 37 -30
24 8 178 59 240 31 38 62 49 57 21z m115 -21 c-18 -6 -76 12 -81 25 -2 8 12 6
45 -5 26 -9 43 -18 36 -20z m1002 -82 c-7 -6 -72 57 -86 84 -6 11 12 -2 40
-29 28 -28 48 -52 46 -55z m-30 -23 c-3 -10 -8 -26 -11 -36 -11 -37 124 -152
221 -187 68 -25 70 -28 56 -75 -10 -34 -16 -40 -39 -39 -47 2 -77 14 -74 31 1
9 -5 18 -14 22 -17 7 -54 -9 -54 -24 0 -5 27 -30 60 -55 66 -51 67 -61 10 -85
-26 -11 -33 -9 -69 16 -38 27 -53 54 -31 54 6 0 10 5 10 10 0 15 -53 12 -75
-4 -17 -13 -17 -15 8 -48 15 -19 34 -54 42 -78 9 -24 21 -47 28 -52 16 -10 6
-17 -34 -24 -31 -5 -32 -4 -16 9 26 21 21 27 -13 15 -26 -9 -33 -7 -50 13 -11
13 -29 43 -40 65 -20 41 -54 62 -66 43 -3 -6 4 -35 16 -65 13 -30 21 -56 19
-58 -10 -8 -66 -14 -75 -8 -5 4 -18 32 -28 62 -26 73 -40 93 -85 123 -59 39
-75 92 -66 212 5 73 10 95 21 95 11 0 12 4 4 19 -11 21 10 33 143 87 27 10 63
31 80 46 l32 27 48 -47 c33 -32 46 -53 42 -64z m-5858 6 l33 -59 -28 -22 c-36
-30 -40 -29 -58 13 -18 42 -10 138 10 131 6 -2 26 -30 43 -63z m4157 50 c20
-8 21 -54 2 -54 -20 0 -39 27 -32 45 6 17 8 17 30 9z m-2594 -21 c0 -10 -62
-73 -72 -73 -14 0 -8 43 9 62 15 17 63 26 63 11z m2017 -30 c-2 -15 -8 -28
-14 -30 -16 -6 -25 28 -12 43 18 22 30 16 26 -13z m-3452 -116 c45 -71 129
-103 247 -93 81 7 99 0 113 -45 11 -35 -5 -35 -31 -1 -24 30 -44 41 -44 24 0
-4 29 -48 65 -97 36 -49 65 -96 65 -106 0 -10 -11 -20 -27 -24 -15 -3 -47 -24
-70 -46 -23 -21 -52 -39 -63 -39 -35 0 -108 -43 -174 -103 -17 -16 -43 -35
-58 -43 -34 -18 -58 -62 -58 -108 0 -47 -12 -52 -63 -24 -31 17 -43 30 -45 51
-2 15 1 27 7 27 13 0 41 53 40 77 0 15 -3 13 -12 -5 -8 -17 -17 -22 -34 -19
-19 4 -23 0 -23 -22 0 -26 -43 -101 -58 -101 -5 0 -21 13 -36 29 l-29 30 21
42 c19 37 20 69 3 69 -3 0 -25 -23 -49 -50 -24 -28 -46 -50 -50 -50 -10 0 -56
89 -49 96 3 3 13 -6 22 -20 24 -37 39 -32 19 6 l-17 32 49 43 c27 23 57 43 67
43 23 0 22 23 -2 44 -19 17 -20 17 -30 -2 -6 -11 -28 -26 -48 -32 -21 -7 -42
-16 -48 -21 -5 -5 -12 -9 -17 -9 -8 0 -38 53 -38 68 0 5 24 20 53 32 126 54
175 81 220 120 26 23 49 41 50 39 1 -2 9 -17 17 -34 18 -35 86 -79 153 -99 74
-22 64 -2 -19 40 -81 42 -111 77 -133 157 -12 48 -9 57 31 80 41 23 31 31 -15
12 -20 -8 -44 -15 -53 -15 -26 0 1 27 55 55 60 31 72 30 96 -8z m3296 -28 c13
-7 18 -34 24 -149 4 -78 4 -144 0 -148 -3 -4 -61 -12 -128 -18 -99 -9 -124 -8
-133 2 -6 7 -21 59 -34 115 -28 123 -23 142 43 186 47 32 50 32 130 26 45 -3
89 -9 98 -14z m2020 -22 c-8 -8 -11 -5 -11 9 0 27 14 41 18 19 2 -9 -1 -22 -7
-28z m-2837 -37 c5 -40 4 -51 -4 -38 -14 23 -26 116 -12 103 5 -5 13 -35 16
-65z m999 48 c2 -7 0 -24 -5 -37 -8 -21 -3 -199 7 -265 5 -28 4 -28 -31 -23
-20 3 -39 9 -43 12 -7 8 -12 306 -5 317 8 13 72 9 77 -4z m-3061 -24 c67 -47
117 -133 132 -230 7 -51 -13 -76 -45 -56 -10 7 -28 12 -38 12 -15 0 -22 9 -27
38 -12 69 -36 147 -60 190 -42 75 -28 91 38 46z m136 -14 c5 -46 -12 -59 -37
-29 -25 30 -26 45 -3 58 26 16 37 8 40 -29z m2812 25 c10 -12 10 -19 1 -28 -9
-9 -14 -9 -21 3 -22 34 -4 54 20 25z m-402 -60 c8 -33 24 -98 37 -145 22 -78
23 -86 8 -97 -21 -16 -63 -17 -63 -2 0 6 -18 62 -41 123 -31 85 -38 115 -30
128 8 13 7 17 -6 20 -32 6 15 39 51 36 29 -3 32 -6 44 -63z m-2258 1 c-1 -21
-1 -21 -15 -2 -21 27 -20 53 0 36 8 -7 15 -22 15 -34z m2878 -9 c3 -14 -1 -18
-20 -15 -12 2 -24 11 -26 21 -3 14 1 18 20 15 12 -2 24 -11 26 -21z m-908 -7
c0 -23 -44 -55 -65 -46 -24 9 -18 25 18 46 40 25 47 25 47 0z m163 -4 c5 -11
-24 -46 -38 -46 -8 0 -23 44 -18 53 7 12 51 8 56 -7z m2499 -46 c2 -17 -2 -26
-14 -28 -13 -3 -18 3 -18 21 0 14 3 33 6 42 8 21 20 4 26 -35z m-2588 -112
c25 -64 46 -124 46 -132 0 -9 -13 -22 -30 -31 -37 -19 -40 -19 -40 5 0 11 -12
45 -26 77 -14 32 -35 82 -46 111 l-19 52 23 29 c17 22 26 26 34 17 6 -6 32
-64 58 -128z m828 119 c10 -10 12 -39 8 -119 -3 -59 -8 -110 -12 -113 -4 -4
-15 -4 -25 -1 -16 5 -18 18 -18 126 0 106 2 120 17 120 9 0 23 -6 30 -13z
m-2972 -54 c0 -7 -7 -13 -15 -13 -15 0 -21 31 -8 43 8 8 23 -12 23 -30z m5522
-11 c46 -49 73 -90 65 -98 -3 -3 -109 63 -145 91 -8 7 12 55 23 55 7 0 33 -22
57 -48z m-3643 4 c9 -11 6 -18 -18 -35 -28 -20 -30 -20 -40 -4 -7 13 -5 23 6
35 19 22 37 23 52 4z m1156 -53 c-7 -42 -12 -50 -21 -40 -10 10 6 77 18 77 6
0 8 -13 3 -37z m-1072 -102 c31 -66 57 -124 57 -129 0 -9 -43 -32 -60 -32 -15
0 -122 219 -114 233 14 24 37 47 49 47 6 0 37 -54 68 -119z m-153 43 c0 -8 -4
-12 -10 -9 -5 3 -10 10 -10 16 0 5 5 9 10 9 6 0 10 -7 10 -16z m956 -33 c14
-11 42 -22 64 -26 44 -7 46 -11 25 -39 -14 -19 -15 -19 -35 -1 -23 20 -25 12
-9 -34 17 -48 49 -38 64 22 14 56 39 23 49 -66 7 -51 20 -79 44 -89 4 -1 20
-27 36 -57 15 -30 60 -104 100 -165 105 -161 124 -195 136 -249 6 -27 32 -80
58 -120 27 -40 63 -98 80 -130 l32 -57 -25 -12 c-14 -6 -25 -19 -25 -30 0 -27
-27 -22 -82 15 -52 35 -55 42 -33 83 8 16 15 35 15 42 0 24 -20 11 -39 -25
-11 -21 -36 -55 -55 -76 -20 -20 -36 -42 -36 -47 0 -7 -47 -10 -132 -8 l-133
3 0 25 c0 36 -37 51 -117 46 -95 -6 -104 -13 -132 -99 -5 -15 -12 -17 -38 -12
-44 10 -45 10 -51 44 -8 40 -63 57 -134 40 l-48 -10 -72 78 c-40 43 -73 74
-73 70 -1 -22 49 -98 96 -150 54 -58 66 -84 42 -91 -7 -2 -22 -7 -33 -11 -19
-7 -19 -8 3 -14 35 -9 31 -26 -7 -29 l-34 -3 7 50 c9 67 -13 91 -81 91 -66 0
-116 -30 -107 -65 8 -34 -18 -43 -47 -16 -25 23 -47 26 -98 11 -19 -5 -37 -8
-39 -5 -3 2 8 34 24 71 34 81 95 145 209 220 90 59 114 82 144 138 41 78 34
171 -14 189 -11 5 -14 20 -12 61 2 63 -17 92 -69 102 -35 6 -104 -11 -104 -27
0 -16 -32 -10 -46 9 -20 26 -17 34 14 30 l27 -3 -3 82 c-4 82 -4 82 23 89 23
6 33 0 66 -35 40 -42 75 -53 85 -26 4 9 0 42 -9 75 l-14 59 32 15 c45 22 65
20 94 -8 15 -13 36 -27 48 -30 20 -7 23 -3 29 43 4 31 12 53 23 57 9 4 66 11
126 14 61 4 123 7 138 8 16 1 40 -7 53 -17z m-466 -5 c0 -18 -17 -29 -30 -21
-8 5 -7 11 1 21 15 18 29 18 29 0z m3120 -57 c69 -95 73 -112 14 -62 -137 117
-148 133 -95 133 25 0 37 -11 81 -71z m-6487 22 c19 -33 22 -51 6 -51 -8 0
-39 58 -39 75 0 14 18 2 33 -24z m3477 11 c0 -20 -27 -43 -43 -36 -22 8 -22
31 1 37 29 8 42 7 42 -1z m566 -47 c8 -20 -4 -85 -16 -85 -12 0 -33 77 -25 90
9 15 35 12 41 -5z m2043 -24 c14 -24 5 -31 -40 -31 -50 0 -58 17 -17 35 43 19
45 18 57 -4z m-2804 -37 c3 -25 4 -48 1 -52 -4 -3 -22 10 -41 28 l-36 34 23
18 c35 27 45 22 53 -28z m2575 -4 c0 -17 -39 -11 -60 10 -32 32 -23 42 20 20
22 -11 40 -25 40 -30z m404 14 c9 -25 7 -149 -3 -138 -4 5 -16 32 -26 59 -10
28 -23 55 -28 62 -5 7 -6 17 -2 23 10 16 52 12 59 -6z m-199 -46 c10 -32 11
-178 1 -175 -14 5 -24 48 -27 110 -2 69 -1 77 11 77 6 0 12 -6 15 -12z m-2941
-55 c3 -25 4 -48 1 -51 -6 -7 -73 51 -74 64 -1 11 34 32 55 33 6 1 14 -20 18
-46z m-3100 -100 c-58 -53 -74 -62 -74 -43 0 17 38 110 56 138 l17 26 30 -34
30 -34 -59 -53z m349 -19 c35 -18 47 -31 47 -53 0 -11 -10 -12 -47 -7 -57 8
-66 15 -57 50 7 30 14 32 57 10z m2911 -15 c37 -29 36 -81 -3 -120 -33 -33
-52 -36 -75 -13 -20 19 -20 24 0 52 8 12 11 22 7 22 -18 0 -33 -25 -33 -52 0
-38 38 -57 82 -40 51 19 82 -14 80 -85 -3 -77 -56 -147 -165 -221 -39 -26 -93
-69 -120 -97 l-50 -50 7 48 c8 49 52 206 61 215 3 3 14 -3 25 -13 13 -11 27
-15 43 -11 29 7 90 72 84 89 -5 16 -57 21 -70 8 -8 -8 -3 -10 21 -5 43 9 43
-15 1 -50 -40 -34 -64 -33 -78 2 -9 22 -7 40 10 97 12 39 24 102 28 140 6 68
7 71 41 87 46 23 71 23 104 -3z m-2910 -79 c21 -7 26 -16 26 -42 0 -45 -11
-108 -19 -108 -8 0 -49 149 -43 155 7 7 7 7 36 -5z m3439 -576 c3 -3 -3 -31
-14 -61 -26 -76 -25 -83 14 -83 36 0 80 -25 74 -43 -2 -6 -25 -12 -53 -15 -27
-2 -51 -5 -53 -7 -2 -2 0 -31 4 -65 6 -49 10 -59 20 -50 8 6 31 10 52 8 30 -2
38 -7 38 -23 0 -26 -58 -44 -86 -27 -18 12 -19 10 -13 -45 9 -80 28 -121 60
-133 38 -15 20 -27 -52 -35 l-60 -7 -17 94 c-9 51 -19 152 -23 224 -5 119 -4
136 14 178 29 64 76 109 95 90z m87 -29 c0 -15 -51 -27 -63 -15 -5 4 -4 17 2
29 10 18 15 19 36 9 14 -6 25 -17 25 -23z m-357 -6 c7 0 3 -4 -8 -9 -27 -12
-75 -12 -75 -1 0 11 38 20 58 15 8 -2 19 -4 25 -5z m-594 -65 c-17 -21 -21
-11 -8 22 10 23 13 25 16 11 3 -10 -1 -25 -8 -33z m291 30 c-54 -17 -50 -16
-50 -5 0 10 29 18 70 19 16 0 9 -4 -20 -14z m1101 -39 c13 -61 8 -75 -21 -57
-11 7 -26 12 -35 12 -18 0 -38 37 -28 53 4 6 6 20 5 30 -3 13 4 17 32 17 34 0
35 -1 47 -55z m-241 25 c102 -12 113 -15 118 -28 5 -15 6 -15 -75 4 -53 13
-95 15 -190 10 -120 -6 -123 -6 -123 15 0 20 3 21 98 14 53 -4 131 -11 172
-15z m315 4 c19 -8 48 -61 40 -74 -3 -6 -15 -15 -26 -20 -17 -10 -21 -7 -33
22 -32 79 -29 90 19 72z m108 -5 c14 -6 30 -22 35 -34 12 -25 59 -285 64 -350
3 -38 2 -40 -28 -43 l-31 -3 -6 68 c-3 37 -13 99 -23 137 -16 65 -16 70 0 82
17 12 16 13 -3 24 -27 14 -27 30 -1 30 31 0 24 19 -15 37 -19 9 -35 20 -35 24
0 4 -3 14 -6 23 -7 19 14 21 49 5z m-960 -21 c4 -12 5 -23 4 -24 -1 -1 -25 -4
-54 -7 -57 -7 -70 2 -53 33 8 15 21 20 54 20 37 0 45 -4 49 -22z m-260 -1 c8
-21 -4 -33 -55 -50 -51 -17 -64 -11 -53 24 11 34 97 55 108 26z m374 -12 c3
-9 3 -19 -1 -22 -8 -9 -37 18 -30 28 8 14 24 11 31 -6z m-47 -5 c0 -5 -7 -10
-16 -10 -8 0 -12 5 -9 10 3 6 10 10 16 10 5 0 9 -4 9 -10z m-667 -63 c-6 -35
-22 -61 -31 -52 -4 3 -7 23 -8 45 -2 29 2 40 14 43 27 6 32 -2 25 -36z m94 26
c4 -11 -54 -39 -63 -31 -9 9 7 37 24 41 23 6 35 3 39 -10z m103 10 c0 -10 -32
-43 -42 -43 -10 0 -11 34 -1 43 8 9 43 9 43 0z m1494 -8 c38 -38 77 -295 67
-440 -1 -7 -16 -9 -37 -7 -34 4 -35 3 -25 -16 18 -33 13 -45 -14 -40 -29 6
-31 -3 -10 -62 8 -23 12 -46 9 -51 -3 -5 -30 -9 -61 -9 -54 0 -56 1 -110 58
-30 31 -59 67 -64 80 -13 33 -11 89 3 98 36 23 81 5 143 -56 25 -24 29 -24 60
-4 20 13 22 19 12 34 -6 11 -8 23 -4 27 5 4 12 1 16 -6 21 -33 51 36 51 116 0
65 -27 191 -48 221 -29 40 -37 72 -18 72 8 0 21 -7 30 -15z m-1094 -42 c0 -27
-5 -113 -11 -193 -6 -80 -10 -164 -10 -187 2 -39 -10 -56 -23 -34 -8 13 -56 7
-96 -11 -19 -9 -75 -48 -124 -87 -49 -39 -97 -71 -105 -70 -9 0 -50 13 -91 28
-72 26 -75 28 -72 57 2 16 12 45 21 64 10 19 22 48 27 65 5 16 18 31 28 33 10
2 16 0 12 -6 -9 -16 24 -72 43 -72 10 0 23 -11 29 -25 6 -14 18 -25 25 -25 17
0 43 28 51 58 4 12 13 22 20 22 8 0 16 14 20 30 5 29 8 30 56 30 27 0 51 -4
51 -10 1 -5 2 -14 3 -20 3 -26 25 -33 66 -21 53 16 51 27 -5 23 -36 -3 -45 -1
-45 12 0 9 7 19 15 22 14 6 14 8 0 18 -14 10 -15 28 -4 169 9 106 16 154 23
147 16 -16 45 -12 63 10 26 30 33 25 33 -27z m657 26 c14 -14 6 -39 -12 -39
-18 0 -28 17 -21 35 6 18 18 19 33 4z m-928 -190 c-7 -96 -15 -177 -18 -181
-3 -4 -25 -10 -48 -14 l-43 -7 0 162 c0 145 2 162 18 167 68 22 75 27 57 40
-15 11 -15 13 7 16 13 2 26 1 31 -2 4 -4 2 -85 -4 -181z m779 174 c-5 -26 -38
-29 -38 -4 0 15 6 21 21 21 14 0 19 -5 17 -17z m317 -98 c32 -177 33 -162 -15
-170 -23 -4 -43 -5 -45 -3 -4 4 -45 232 -45 252 0 10 12 16 38 18 20 2 40 1
44 -2 4 -3 14 -45 23 -95z m-1319 -7 c-4 -57 -9 -145 -13 -197 -5 -72 -11 -99
-24 -112 -19 -19 -66 -35 -75 -26 -5 4 11 234 22 325 5 39 9 44 47 60 l42 17
-35 6 c-35 6 -35 6 -10 17 52 23 53 21 46 -90z m-192 46 c10 -25 7 -92 -8
-194 -8 -52 -17 -125 -21 -163 -4 -38 -13 -74 -22 -82 -31 -32 -47 -7 -16 27
15 17 15 18 -15 12 l-32 -7 6 134 c7 140 14 169 41 169 17 0 53 28 53 41 0 4
-15 5 -34 2 -37 -6 -51 6 -41 36 11 34 78 54 89 25z m3013 -31 c4 -11 -26 -27
-35 -19 -2 3 -2 12 2 21 6 18 27 16 33 -2z m-1812 -33 c0 -8 -10 -16 -22 -18
-22 -3 -32 16 -16 32 12 11 38 2 38 -14z m169 -11 c-3 -5 -14 -9 -25 -9 -21 0
-26 26 -6 33 15 5 39 -12 31 -24z m-562 -155 c7 -47 4 -64 -8 -52 -3 4 -7 14
-8 25 -2 14 -12 18 -39 18 -42 0 -50 15 -18 31 13 7 28 17 34 23 20 20 32 6
39 -45z m375 29 c32 -13 -12 -18 -116 -15 -84 3 -101 6 -101 19 0 14 13 15
100 9 56 -4 108 -10 117 -13z m-659 -38 c-15 -14 -73 -27 -82 -18 -12 13 17
33 39 27 18 -4 27 0 36 18 12 21 14 21 17 4 2 -10 -2 -24 -10 -31z m891 21
c18 -22 3 -25 -86 -16 -127 13 -139 29 -22 30 71 0 100 -4 108 -14z m61 -26
c0 -5 -5 -10 -11 -10 -5 0 -7 5 -4 10 3 6 8 10 11 10 2 0 4 -4 4 -10z m60 -5
c0 -9 -9 -15 -25 -15 -16 0 -25 6 -25 15 0 9 9 15 25 15 16 0 25 -6 25 -15z
m125 -5 c13 -20 -5 -29 -38 -17 -32 11 -32 11 -7 18 36 10 38 10 45 -1z m-225
-19 c6 -13 7 -22 0 -26 -5 -3 -7 -12 -3 -20 8 -21 -7 -18 -34 7 -26 24 -30 43
-8 34 9 -3 15 0 15 9 0 21 17 18 30 -4z m284 -19 c8 -13 -11 -35 -23 -28 -16
10 -14 36 3 36 8 0 17 -4 20 -8z m-1360 -67 c-7 -17 -20 -20 -28 -6 -7 10 3
21 20 21 8 0 11 -6 8 -15z m694 2 c8 -9 -1 -36 -30 -100 -23 -48 -45 -87 -49
-87 -11 0 -133 89 -137 100 -2 5 9 26 23 48 25 38 28 39 69 35 24 -3 52 0 62
6 25 14 49 14 62 -2z m-1001 -52 c12 -25 17 -45 12 -45 -26 0 9 -20 105 -59
58 -24 106 -47 106 -52 0 -20 -27 -19 -120 5 -55 14 -123 28 -150 32 -28 4
-53 10 -55 15 -3 4 6 20 20 35 14 15 25 35 25 45 0 21 20 69 29 69 3 0 16 -20
28 -45z m1053 -22 c0 -13 -7 -37 -15 -53 -15 -30 -82 -87 -91 -78 -2 3 14 44
37 92 34 70 44 84 55 75 8 -6 14 -22 14 -36z m-976 19 c2 -4 0 -14 -5 -22 -8
-13 -10 -13 -18 0 -10 15 -6 30 9 30 5 0 11 -4 14 -8z m1742 -97 c4 -21 3 -27
-4 -20 -6 6 -14 24 -18 40 -4 21 -3 27 4 20 6 -5 14 -23 18 -40z m-1012 -5
c22 -17 34 -30 27 -30 -16 0 -101 21 -101 25 0 14 14 35 24 35 6 0 29 -14 50
-30z m-769 -60 c61 -18 114 -35 118 -39 8 -8 -46 -56 -123 -108 -138 -93 -339
-192 -370 -181 -23 7 179 275 233 308 18 11 29 21 25 21 -5 1 -12 2 -17 3 -5
0 -13 5 -17 9 -10 10 14 27 30 22 6 -2 61 -18 121 -35z m1125 23 c0 -5 -19
-19 -42 -32 -44 -25 -131 -101 -124 -108 4 -5 100 48 155 84 19 13 43 23 54
23 17 0 106 -71 115 -91 2 -4 -13 -12 -33 -19 -19 -6 -77 -29 -127 -51 -116
-50 -137 -45 -186 38 -18 30 -31 57 -30 58 98 70 218 124 218 98z m-296 -53
l31 -30 -24 -46 c-23 -42 -27 -45 -54 -40 -25 5 -28 4 -17 -9 7 -8 8 -15 3
-15 -10 0 -184 88 -196 100 -12 11 62 72 81 66 35 -10 144 -27 149 -23 2 3
-12 8 -31 11 -51 10 -60 31 -11 23 24 -4 51 -18 69 -37z m881 14 c19 -15 18
-15 -15 -10 -27 5 -32 4 -22 -6 16 -16 15 -28 -3 -28 -18 0 -58 38 -51 48 9
15 72 12 91 -4z m111 -11 c-3 -8 -6 -17 -6 -19 0 -2 -4 -4 -9 -4 -10 0 -21 36
-14 44 10 10 34 -7 29 -21z m-37 -95 c14 -46 18 -111 6 -114 -13 -4 -106 127
-99 138 3 4 23 8 44 8 35 0 39 -3 49 -32z m-1185 -8 c26 -11 45 -25 44 -32 -2
-7 16 -15 46 -19 53 -8 70 -19 64 -42 -2 -11 -29 -2 -120 41 -65 30 -118 59
-118 63 0 15 36 10 84 -11z m-44 -58 c14 -6 51 -20 83 -32 66 -26 73 -39 64
-128 -3 -43 -18 -82 -57 -157 -29 -55 -54 -101 -55 -103 -1 -2 -18 6 -36 17
-55 32 -173 71 -332 110 -81 20 -148 41 -149 46 0 5 40 35 91 67 50 31 139 93
198 137 104 78 107 79 137 67 17 -8 42 -18 56 -24z m294 -96 c-6 -16 -24 -23
-24 -8 0 10 22 33 27 28 2 -2 1 -11 -3 -20z m-306 -323 c32 -13 34 -16 19 -31
-19 -18 -41 -10 -93 34 l-29 25 34 -7 c19 -3 50 -13 69 -21z"/>
<path d="M3722 5733 c-90 -193 -116 -322 -110 -543 3 -85 10 -166 16 -180 9
-20 10 -10 4 45 -25 244 14 483 114 704 14 29 23 55 21 57 -2 2 -22 -35 -45
-83z"/>
<path d="M4543 5808 c-18 -6 -33 -14 -33 -18 0 -4 16 -2 35 4 19 6 35 14 35
18 0 5 -1 8 -2 7 -2 -1 -18 -6 -35 -11z"/>
<path d="M4500 5759 c-53 -16 -63 -33 -15 -25 22 3 71 6 110 6 44 0 66 3 59
10 -15 15 -115 21 -154 9z"/>
<path d="M4555 5690 c33 -17 75 -43 94 -60 29 -25 32 -32 21 -45 -11 -13 -9
-15 14 -15 14 0 26 3 26 8 0 17 -74 99 -108 119 -20 13 -53 23 -72 23 -35 -1
-34 -1 25 -30z"/>
<path d="M4640 5538 c0 -9 6 -23 13 -30 44 -43 49 -103 12 -120 -30 -13 -31
-23 -7 -77 22 -49 32 -45 24 11 -4 30 -1 44 10 52 34 25 22 109 -22 151 -22
22 -30 25 -30 13z"/>
<path d="M3955 5500 c-4 -12 -15 -20 -27 -20 -20 0 -21 -1 -3 -20 16 -18 14
-25 -7 -21 -13 2 -9 -13 10 -35 22 -28 83 -59 91 -46 3 5 24 12 46 16 l39 8
-24 19 c-14 11 -46 29 -72 41 -42 20 -46 25 -41 50 6 32 -3 38 -12 8z"/>
<path d="M4485 5513 c-36 -9 -41 -23 -8 -23 50 0 82 -17 105 -56 19 -32 22
-34 36 -20 13 13 13 18 -2 40 -29 45 -86 70 -131 59z"/>
<path d="M4372 5380 c-67 -42 -52 -78 21 -52 59 21 75 13 98 -54 24 -67 23
-90 -3 -109 -22 -15 -21 -16 27 -13 l50 3 0 88 c0 84 -2 88 -32 118 -41 42
-112 50 -161 19z"/>
<path d="M4182 5296 c-22 -38 -14 -50 26 -35 22 8 27 24 16 53 -9 24 -20 19
-42 -18z"/>
<path d="M4430 5295 c0 -3 6 -14 12 -25 10 -15 10 -27 1 -50 -12 -33 0 -41 17
-11 14 26 13 64 -2 79 -12 12 -28 16 -28 7z"/>
<path d="M4314 5232 c3 -5 2 -21 -3 -34 -8 -19 -3 -28 27 -56 24 -21 38 -28
43 -21 4 7 17 9 33 5 35 -9 33 3 -8 44 -34 35 -105 83 -92 62z"/>
<path d="M3641 4964 c0 -11 3 -14 6 -6 3 7 2 16 -1 19 -3 4 -6 -2 -5 -13z"/>
<path d="M4248 4743 c7 -3 16 -2 19 1 4 3 -2 6 -13 5 -11 0 -14 -3 -6 -6z"/>
<path d="M4320 4692 c0 -11 22 -32 32 -32 5 0 4 9 -2 20 -11 20 -30 28 -30 12z"/>
<path d="M2363 3963 c9 -2 23 -2 30 0 6 3 -1 5 -18 5 -16 0 -22 -2 -12 -5z"/>
<path d="M4350 4188 c1 -34 27 -139 38 -150 13 -13 26 9 41 67 12 50 12 50
-19 77 -37 34 -60 36 -60 6z"/>
<path d="M4447 4098 c-30 -95 -30 -92 9 -139 20 -24 40 -48 45 -53 9 -10 79
49 79 66 0 17 -95 178 -105 178 -6 0 -18 -24 -28 -52z"/>
<path d="M6610 3781 c0 -32 110 -81 182 -81 32 0 15 11 -59 37 -37 13 -77 30
-89 38 -27 17 -34 19 -34 6z"/>
<path d="M6820 3683 c-25 -5 -70 -40 -70 -55 0 -4 19 1 43 11 23 10 58 26 77
34 l35 16 -30 -1 c-16 0 -41 -3 -55 -5z"/>
<path d="M916 3272 c-8 -14 14 -52 31 -52 18 0 16 14 -5 41 -13 14 -21 18 -26
11z"/>
<path d="M4275 3708 c-16 -6 -41 -20 -54 -32 -21 -19 -23 -27 -18 -81 3 -33
12 -73 20 -89 15 -27 19 -29 100 -33 76 -4 88 -2 106 16 44 44 38 168 -10 204
-32 23 -102 31 -144 15z m8 -123 c1 -5 -10 -11 -25 -13 -16 -2 -28 1 -28 7 0
20 49 26 53 6z"/>
<path d="M4397 3178 c14 -35 34 -81 43 -103 10 -22 26 -64 36 -92 10 -29 22
-53 25 -53 7 0 -53 171 -91 258 -32 74 -44 65 -13 -10z"/>
<path d="M4058 3193 c-34 -8 -63 -112 -36 -129 19 -12 88 -22 88 -13 0 4 -4
19 -10 33 -11 30 -31 35 -23 6 4 -16 0 -20 -20 -20 -15 0 -26 7 -29 18 -7 24
20 92 36 92 41 0 98 -83 107 -155 5 -45 6 -47 13 -22 17 59 -20 142 -79 176
-16 10 -37 16 -47 14z"/>
<path d="M4505 2850 c-17 -27 -8 -74 19 -97 29 -25 56 -30 56 -11 0 18 -39 95
-55 108 -9 8 -15 8 -20 0z"/>
<path d="M5496 5290 c-3 -17 -3 -51 1 -75 l6 -45 -36 0 c-43 0 -52 -10 -32
-36 8 -10 15 -22 15 -26 0 -5 -48 -8 -106 -8 l-106 0 6 -27 c10 -41 70 -128
108 -156 42 -31 90 -47 141 -47 28 0 48 -7 64 -21 17 -17 35 -22 75 -22 35 0
68 8 95 22 23 11 49 21 58 21 9 0 29 10 45 22 24 18 33 19 43 9 9 -10 8 -14
-6 -22 -38 -22 -58 -99 -21 -85 23 9 44 -32 32 -65 -12 -35 5 -95 32 -109 10
-6 32 -10 49 -10 l30 0 -6 -63 c-5 -61 -4 -65 22 -85 15 -12 40 -22 56 -22 29
0 41 -16 29 -40 -5 -8 -11 -36 -15 -61 -8 -54 5 -72 65 -90 45 -14 46 -14 24
-69 -21 -52 -13 -79 33 -116 32 -26 55 -33 148 -48 61 -9 120 -19 133 -23 18
-4 21 -2 16 13 -4 11 -24 37 -44 59 -31 32 -39 50 -43 93 -4 35 -18 72 -41
110 -20 34 -36 76 -40 105 -8 67 -33 104 -86 128 -73 33 -75 35 -76 70 -2 86
-4 92 -43 129 -30 29 -38 43 -34 62 4 21 -8 34 -78 91 -49 40 -91 67 -105 67
-29 0 -32 20 -4 27 24 6 24 7 4 38 -8 13 -14 36 -13 52 6 80 -6 90 -148 124
-116 28 -156 50 -199 109 -20 28 -37 50 -39 50 -1 0 -5 -14 -9 -30z m634 -747
c0 -20 -3 -24 -11 -16 -7 7 -9 19 -6 27 10 24 17 19 17 -11z m243 -385 c7 -49
1 -64 -19 -47 -14 12 -20 70 -7 82 14 15 21 5 26 -35z"/>
<path d="M2249 5209 c-8 -13 -26 -46 -38 -74 -38 -82 -56 -100 -120 -124 -115
-42 -211 -157 -211 -254 0 -38 -5 -47 -44 -80 -29 -24 -46 -46 -48 -64 -2 -20
-12 -32 -36 -44 -44 -20 -52 -34 -52 -96 0 -47 -2 -52 -28 -61 -24 -8 -34 -23
-54 -78 -25 -67 -27 -69 -63 -72 l-37 -3 7 -48 c5 -38 3 -52 -10 -65 -9 -9
-21 -16 -26 -16 -5 0 -9 -29 -9 -64 l0 -65 58 5 c66 5 44 -6 -51 -26 -56 -11
-91 -41 -70 -60 11 -11 222 42 256 65 26 17 31 26 28 52 -1 7 16 36 39 64 22
28 40 57 40 65 0 29 121 255 169 317 60 76 79 120 61 142 -10 12 -7 15 12 19
145 30 231 61 284 101 27 21 34 33 34 61 0 20 7 40 18 48 9 8 31 26 49 41 54
44 95 155 58 155 -9 0 -19 -17 -26 -45 -7 -27 -22 -54 -37 -66 -24 -18 -27
-19 -41 -3 -11 11 -12 18 -5 21 6 2 20 11 30 19 18 15 18 15 -1 8 -33 -11
-132 -17 -138 -7 -3 5 3 33 13 63 20 56 25 139 11 174 -7 17 -8 17 -22 -5z
m-119 -498 c0 -10 -42 -23 -49 -15 -7 6 20 24 37 24 6 0 12 -4 12 -9z"/>
<path d="M6230 3991 c0 -27 12 -33 110 -53 117 -23 163 -23 158 0 -2 10 -13
17 -28 18 -14 0 -37 5 -52 12 -14 6 -55 16 -90 22 -34 6 -71 13 -80 16 -13 4
-18 0 -18 -15z"/>
<path d="M1555 3915 c-117 -28 -132 -34 -139 -57 -9 -36 7 -40 65 -17 30 11
86 24 124 28 66 6 70 7 70 31 0 21 -5 25 -30 27 -16 1 -57 -5 -90 -12z"/>
<path d="M4845 3905 c16 -13 32 -22 35 -19 7 7 -39 44 -54 44 -6 -1 2 -12 19
-25z"/>
<path d="M3130 3868 c-26 -62 -22 -105 15 -153 14 -19 25 -36 25 -38 0 -2 -20
-25 -45 -49 -39 -39 -45 -51 -45 -86 0 -23 10 -62 23 -88 l22 -46 -31 -27
c-81 -67 -107 -160 -65 -226 35 -56 76 -97 93 -94 13 3 7 17 -28 69 -58 87
-58 121 -4 195 42 57 59 65 80 40 10 -12 6 -22 -19 -54 -17 -21 -31 -43 -31
-49 0 -11 108 -145 121 -150 5 -2 4 9 -1 25 -11 31 -41 67 -86 102 l-28 22 35
29 c18 17 37 30 41 30 8 0 58 74 58 85 0 11 -22 4 -37 -11 -14 -14 -19 -11
-50 33 -19 26 -42 62 -51 80 -15 31 -14 34 16 83 18 28 32 56 32 61 0 25 23 3
47 -46 15 -30 31 -55 35 -55 10 0 -1 28 -57 145 -36 74 -45 104 -41 126 3 16
9 42 12 58 10 50 -13 43 -36 -11z"/>
<path d="M4757 3880 c-6 -24 8 -36 17 -14 8 22 7 34 -3 34 -5 0 -11 -9 -14
-20z"/>
<path d="M4878 3854 c-3 -5 -2 -64 2 -132 5 -97 11 -127 24 -140 17 -16 18
-11 14 103 -3 84 -8 129 -19 149 -9 16 -18 25 -21 20z"/>
<path d="M3240 3678 c0 -13 5 -30 10 -38 7 -11 9 -5 8 23 -1 39 -18 53 -18 15z"/>
<path d="M3321 3559 c-13 -11 -31 -24 -40 -29 -14 -8 -13 -14 9 -57 37 -70 34
-134 -7 -195 -54 -77 -42 -91 24 -27 60 58 68 126 25 215 -15 33 -15 35 12 63
16 16 25 34 22 40 -10 15 -17 13 -45 -10z"/>
<path d="M6397 3453 c-15 -14 -5 -21 46 -33 28 -6 60 -14 70 -17 20 -5 24 26
5 45 -13 13 -110 17 -121 5z"/>
<path d="M1475 3277 c-33 -18 -79 -41 -103 -50 -23 -9 -42 -21 -42 -27 0 -5 2
-10 5 -10 7 0 227 108 233 115 18 17 -43 -1 -93 -28z"/>
<path d="M1475 3229 c-116 -59 -123 -65 -108 -80 8 -8 32 -1 88 27 42 22 85
47 95 57 11 9 25 16 32 15 6 -2 14 5 16 15 6 26 -15 21 -123 -34z"/>
<path d="M1497 3162 c-95 -51 -135 -92 -144 -147 -4 -28 -1 -43 16 -66 l22
-30 -20 -43 c-27 -54 -27 -55 8 -106 l28 -42 -19 -51 c-25 -66 -18 -92 33
-117 34 -18 39 -24 33 -43 -30 -93 -21 -126 38 -143 l33 -10 0 -75 c0 -88 16
-121 67 -135 27 -8 34 -15 36 -39 5 -59 13 -74 49 -96 21 -13 41 -27 45 -33 3
-5 4 -39 1 -75 -5 -59 -3 -68 17 -86 12 -11 53 -27 93 -35 l71 -15 -3 -48 c-2
-42 1 -51 29 -79 29 -28 30 -33 16 -43 -25 -18 -19 -25 20 -25 29 0 45 -9 88
-50 55 -52 72 -57 125 -39 29 10 34 8 72 -26 36 -33 46 -37 80 -32 20 3 53 17
72 31 28 22 43 26 93 24 52 -1 65 3 111 33 57 37 93 94 93 146 0 38 9 45 92
72 36 12 72 29 79 38 8 8 16 52 19 96 5 80 6 82 40 103 104 66 128 103 110
172 -14 58 -8 75 49 116 27 20 54 50 61 66 19 47 7 132 -25 174 -27 35 -26 56
1 56 21 0 96 45 120 71 25 27 22 97 -6 170 -19 50 -19 55 -3 67 9 6 22 12 28
12 14 0 68 57 84 87 27 52 -5 182 -55 224 -27 23 -26 1 7 -85 28 -74 30 -88
20 -114 -10 -24 -98 -102 -116 -102 -3 0 -5 10 -5 22 0 17 -3 19 -12 10 -14
-14 -28 -16 -28 -3 0 13 -52 103 -57 98 -2 -3 11 -34 29 -71 29 -59 31 -69 21
-97 -12 -31 -12 -31 7 -14 11 10 22 16 24 14 9 -9 36 -130 36 -163 0 -33 -4
-37 -72 -77 l-72 -42 -23 28 c-38 44 -36 24 4 -40 l36 -58 -29 -24 c-16 -12
-34 -23 -41 -23 -13 0 -93 146 -93 171 0 21 102 89 133 89 12 0 33 -7 45 -16
13 -9 26 -14 28 -11 7 7 -79 57 -98 57 -36 0 -158 -86 -158 -111 0 -20 23 -65
52 -101 25 -32 28 -42 17 -49 -8 -5 -20 -9 -27 -9 -7 0 -31 -9 -52 -20 -49
-25 -58 -55 -37 -123 20 -63 12 -80 -48 -97 -56 -16 -71 -37 -80 -112 l-6 -58
-50 1 c-27 1 -55 -4 -63 -10 -8 -7 -20 -38 -27 -69 -7 -31 -19 -61 -26 -65 -7
-5 -40 -30 -71 -56 -44 -37 -69 -50 -103 -55 -24 -3 -62 -8 -84 -11 -33 -5
-47 -2 -78 19 -33 23 -38 24 -44 9 -4 -9 1 -21 11 -29 25 -18 13 -31 -38 -38
-24 -4 -50 -14 -56 -21 -15 -19 -14 -19 44 1 26 9 50 14 53 11 3 -3 -4 -22
-16 -41 -28 -44 -26 -119 2 -124 14 -3 17 1 12 21 -13 51 52 138 109 149 18 3
20 -3 20 -68 1 -64 4 -74 26 -92 27 -22 37 -14 21 17 -18 32 -13 106 7 132 27
32 46 20 81 -54 29 -62 52 -84 72 -72 5 4 -5 33 -21 65 -43 85 -40 110 17 157
36 29 47 35 51 23 3 -8 17 23 31 69 14 46 34 89 43 95 23 14 72 -4 76 -29 9
-49 20 -28 37 70 10 58 23 109 29 113 20 15 99 41 107 36 5 -3 9 -13 9 -22 0
-13 3 -11 16 6 10 15 13 27 6 35 -5 7 -17 45 -27 85 -14 58 -15 75 -5 87 7 8
17 15 22 15 5 0 28 9 50 20 23 11 45 20 50 20 4 0 8 -9 8 -20 0 -26 8 -25 54
10 23 18 44 26 49 21 16 -16 20 -90 7 -121 -20 -48 -130 -116 -130 -80 0 6 -3
10 -7 10 -5 0 -9 -20 -9 -45 -1 -32 3 -45 12 -45 17 0 34 -32 34 -64 0 -47
-100 -136 -138 -121 -9 3 -19 5 -21 3 -2 -2 -3 -46 -2 -100 2 -90 1 -97 -21
-112 -12 -9 -28 -16 -35 -16 -25 0 -123 -51 -133 -70 -5 -10 -10 -39 -10 -64
0 -41 -3 -48 -32 -66 -18 -11 -42 -20 -53 -20 -11 0 -33 -7 -49 -15 -15 -8
-40 -15 -54 -15 -13 0 -47 -13 -74 -30 -26 -16 -57 -30 -67 -30 -18 0 -46 24
-74 64 -13 18 -15 18 -59 1 -26 -9 -55 -14 -66 -11 -28 9 -62 41 -62 59 0 8
-12 18 -26 21 -19 5 -24 11 -19 25 4 15 -3 23 -32 38 l-38 18 3 69 c2 58 0 67
-13 63 -25 -10 -17 8 15 31 17 13 30 29 30 37 0 24 18 27 30 5 9 -16 8 -25 0
-36 -20 -23 17 -30 51 -10 21 13 47 17 92 15 50 -2 63 0 65 13 4 22 -45 32
-113 23 -49 -6 -53 -5 -58 17 -9 35 -69 96 -103 104 -47 11 -54 22 -54 85 0
56 -3 62 -41 103 -22 25 -45 60 -50 80 -5 19 -25 54 -44 76 -25 30 -35 52 -35
77 0 39 -10 62 -52 115 -24 31 -28 43 -23 75 5 29 1 49 -19 85 -14 26 -28 71
-31 100 -4 29 -11 66 -17 81 -8 22 -7 36 7 67 14 32 16 51 9 107 -4 37 -7 85
-5 106 1 20 1 37 -1 37 -1 0 -43 -22 -91 -48z m172 -668 c12 -27 7 -45 -8 -28
-14 14 -23 54 -13 54 5 0 14 -12 21 -26z m-169 -66 c0 -24 -17 -23 -25 2 -8
26 4 48 16 29 5 -8 9 -22 9 -31z m266 -186 c-10 -10 -29 15 -21 28 6 9 10 8
17 -4 6 -10 7 -20 4 -24z"/>
<path d="M3038 3030 c-20 -11 -49 -36 -64 -55 -43 -57 -23 -118 62 -189 19
-15 37 -26 40 -24 2 3 -16 36 -41 74 -25 38 -45 78 -45 89 0 11 23 43 52 72
56 57 55 64 -4 33z"/>
<path d="M5280 2656 c0 -8 5 -18 10 -21 6 -3 10 3 10 14 0 12 -4 21 -10 21 -5
0 -10 -6 -10 -14z"/>
<path d="M2952 2365 c0 -22 3 -49 8 -60 7 -16 9 -13 8 15 0 19 -4 46 -8 60 -7
21 -8 19 -8 -15z"/>
<path d="M6498 1811 c-12 -17 -31 -41 -41 -55 l-17 -25 -43 19 c-42 19 -60 12
-37 -14 18 -22 79 -48 98 -41 21 7 95 122 87 135 -10 16 -22 11 -47 -19z"/>
<path d="M6160 1751 c0 -6 18 -20 40 -31 45 -23 85 -19 100 10 16 29 12 35
-10 15 -18 -16 -26 -17 -58 -8 -20 5 -45 14 -54 18 -11 4 -18 3 -18 -4z"/>
</g>
</svg>
