<?xml version="1.0" standalone="no"?>
<!DOCTYPE svg PUBLIC "-//W3C//DTD SVG 20010904//EN"
 "http://www.w3.org/TR/2001/REC-SVG-20010904/DTD/svg10.dtd">
<svg version="1.0" xmlns="http://www.w3.org/2000/svg"
 width="640.000000pt" height="426.000000pt" viewBox="0 0 640.000000 426.000000"
 preserveAspectRatio="xMidYMid meet">
<metadata>
Created by potrace 1.16, written by Peter Selinger 2001-2019
</metadata>
<g transform="translate(0.000000,426.000000) scale(0.100000,-0.100000)"
fill="#000000" stroke="none">
<path d="M0 2905 c0 -1077 3 -1355 13 -1356 6 -1 28 0 47 1 19 0 81 -6 137
-15 57 -8 120 -15 142 -15 22 0 44 -6 51 -15 15 -18 42 -19 58 -3 9 9 32 8 98
-2 l86 -12 46 43 c26 24 50 50 55 57 4 6 13 12 20 12 7 0 38 24 69 53 44 40
55 56 46 65 -8 8 -8 18 -2 34 11 26 11 291 0 326 -4 13 -15 22 -27 22 -10 0
-19 6 -19 13 0 8 -4 7 -10 -3 -8 -12 -10 -9 -10 12 0 14 -6 29 -12 31 -10 4
-9 8 2 16 11 8 17 6 22 -7 6 -16 7 -16 7 0 1 12 6 15 17 11 24 -9 14 47 -11
61 -11 6 -23 15 -26 20 -4 4 -17 5 -29 1 -14 -4 -25 -2 -30 5 -4 7 -25 14 -46
15 -22 1 -41 3 -43 4 -2 0 4 12 13 26 15 23 15 26 1 31 -8 3 -22 3 -31 0 -9
-4 -23 -1 -30 5 -11 9 -14 8 -14 -6 0 -10 -6 -15 -17 -13 -10 2 -18 12 -18 23
0 22 67 60 120 68 17 3 54 14 83 26 29 12 65 21 80 21 l27 0 -2 368 c-1 307
-19 1421 -22 1430 -1 1 -190 2 -421 2 l-420 0 0 -1355z"/>
<path d="M6006 4229 c-21 -24 -27 -27 -22 -11 4 11 2 23 -4 27 -5 3 -10 1 -10
-5 0 -6 -6 -17 -12 -24 -11 -11 -16 -9 -31 13 l-19 26 6 -35 c6 -35 6 -35 -12
-13 -17 21 -18 21 -39 4 -12 -10 -20 -21 -17 -24 3 -3 -2 -22 -12 -43 -15 -32
-19 -34 -25 -18 -7 17 -8 17 -8 -4 -1 -13 -5 -21 -10 -17 -5 3 -12 1 -16 -5
-10 -16 -25 -1 -18 17 4 11 3 14 -5 9 -7 -4 -12 -15 -12 -24 0 -15 -2 -15 -10
-2 -8 13 -10 12 -10 -2 0 -10 -5 -18 -12 -18 -6 0 -8 -3 -4 -7 4 -4 23 -6 42
-5 23 2 33 -1 29 -8 -3 -6 -9 -9 -13 -6 -4 2 -17 -12 -29 -30 -20 -31 -20 -34
-5 -34 19 0 42 18 42 33 0 4 -4 5 -10 2 -5 -3 -10 -1 -10 4 0 12 29 15 31 4 5
-23 6 -76 2 -65 -6 16 -32 15 -63 -3 -23 -13 -23 -14 -5 -15 16 -1 14 -4 -9
-15 -27 -11 -23 -12 44 -7 53 3 71 2 66 -6 -5 -8 -1 -10 10 -5 12 4 15 3 10
-5 -10 -16 0 -15 28 4 14 8 43 17 66 19 38 3 40 3 24 -10 -11 -8 -15 -15 -10
-15 5 0 3 -7 -4 -15 -7 -8 -8 -15 -2 -15 5 0 15 7 22 15 7 8 16 12 21 9 15 -9
10 -24 -7 -24 -8 0 -13 -4 -9 -9 3 -5 -3 -11 -12 -13 -10 -3 1 -8 24 -12 50
-9 63 -21 26 -24 -37 -3 -42 -12 -8 -12 28 0 28 -1 9 -15 -18 -15 -18 -15 0
-8 15 5 17 3 11 -8 -8 -12 -6 -12 8 0 15 12 17 12 10 -4 -5 -15 -3 -17 11 -12
10 4 15 3 11 -3 -3 -6 -1 -10 5 -10 6 0 8 -4 5 -10 -3 -5 -11 -10 -16 -10 -6
0 -7 5 -4 10 4 6 -3 9 -17 7 -13 -2 -25 -12 -26 -22 -3 -11 0 -15 7 -10 6 3 8
12 4 18 -7 12 27 -11 38 -26 3 -4 20 0 38 9 18 9 34 14 37 11 3 -2 -11 -12
-30 -21 -24 -11 -33 -21 -30 -31 4 -8 1 -15 -7 -15 -7 0 -9 -3 -6 -7 4 -3 17
2 28 13 22 19 22 19 11 -2 -10 -20 -9 -21 20 -18 24 3 28 1 19 -9 -6 -8 -7
-18 -3 -22 4 -5 1 -5 -5 -1 -8 4 -13 2 -13 -5 0 -7 -3 -9 -6 -6 -8 8 -44 -11
-44 -23 0 -5 15 -3 33 3 19 8 50 10 77 6 28 -3 35 -7 20 -8 -58 -6 -70 -8 -77
-15 -4 -4 -1 -12 7 -17 11 -8 9 -9 -9 -4 -16 5 -21 4 -17 -4 4 -6 4 -11 -1 -9
-4 1 -26 -6 -48 -16 -22 -10 -48 -19 -57 -21 -9 -2 -27 -9 -39 -15 -17 -9 -20
-9 -14 0 8 14 108 60 129 60 7 0 19 6 25 14 10 12 8 14 -11 12 -13 -1 -34 -8
-48 -15 -22 -11 -23 -11 -7 2 17 14 16 15 -9 21 -18 5 -30 3 -35 -6 -5 -7 -9
-9 -9 -4 0 5 -7 3 -15 -4 -12 -10 -15 -10 -15 3 0 9 -6 14 -13 11 -16 -6 -38
-61 -31 -79 3 -7 1 -16 -5 -20 -7 -4 -9 1 -5 12 3 10 -13 -2 -36 -27 -33 -35
-43 -41 -51 -30 -12 21 -11 29 6 46 8 9 15 24 15 34 0 10 5 22 10 25 19 12 11
33 -10 28 -11 -3 -20 -9 -20 -14 0 -5 -4 -9 -10 -9 -5 0 -6 8 -3 18 5 14 4 15
-8 6 -8 -7 -26 -10 -41 -9 -34 4 -45 -10 -21 -25 15 -9 13 -10 -12 -5 -26 6
-90 13 -132 15 -7 0 -10 7 -7 15 8 21 -53 20 -95 -1 -18 -9 -41 -14 -53 -11
-11 3 -32 1 -47 -6 -29 -12 -152 -16 -144 -4 2 4 13 7 23 7 10 0 26 3 35 6 13
5 14 8 3 15 -9 6 -2 9 20 9 26 0 32 4 32 22 0 21 -1 21 -13 3 -10 -12 -16 -14
-21 -7 -4 7 -15 12 -24 12 -12 0 -14 -3 -4 -8 7 -5 -9 -9 -38 -9 -39 -1 -48 2
-40 11 7 9 4 12 -13 12 -13 -1 -21 4 -20 12 2 6 -2 12 -7 12 -6 0 -10 -7 -10
-15 0 -19 -18 -19 -50 1 -22 14 -23 15 -4 11 12 -3 28 -1 35 4 12 7 11 9 -1
10 -8 1 -1 5 15 9 l30 8 -30 1 c-36 1 -73 -26 -78 -56 -4 -29 -17 -42 -17 -17
0 12 -3 15 -8 7 -4 -6 -20 -15 -35 -18 -15 -4 -27 -14 -27 -22 0 -10 6 -13 16
-9 10 4 25 -1 35 -10 12 -11 19 -13 19 -5 0 7 5 9 11 5 6 -3 32 -6 58 -6 44 0
45 0 16 -10 -16 -6 -33 -15 -36 -20 -7 -12 -91 11 -84 23 3 4 -12 7 -32 6 -29
-2 -41 -8 -50 -26 -16 -29 -9 -41 23 -41 14 0 24 -6 24 -14 0 -14 29 -30 38
-21 3 3 0 5 -6 5 -7 0 -12 7 -12 15 0 8 5 15 10 15 6 0 10 -4 10 -8 0 -5 18
-14 40 -21 25 -7 38 -16 34 -23 -4 -7 -2 -8 5 -4 6 4 19 2 28 -5 9 -8 23 -14
32 -14 9 0 15 -6 14 -12 -2 -7 4 -14 12 -14 38 -3 72 -18 79 -34 7 -19 43 -38
43 -22 0 7 4 28 7 47 7 34 5 37 -29 53 -36 17 -106 38 -137 40 -9 1 -21 12
-27 24 -13 28 -14 28 44 2 25 -11 49 -18 52 -15 4 3 1 6 -6 6 -8 0 -11 7 -7
15 3 8 1 15 -3 15 -5 0 -11 -5 -13 -12 -3 -7 -7 -6 -11 5 -9 24 39 23 52 -1 5
-10 21 -24 35 -32 14 -7 26 -20 27 -29 1 -9 4 -5 9 9 6 22 8 23 15 8 4 -10 14
-18 22 -18 8 0 12 -4 9 -9 -3 -4 1 -16 8 -27 10 -13 11 -23 3 -35 -8 -13 -7
-22 3 -33 11 -14 10 -16 -4 -10 -9 3 -16 14 -17 23 0 12 -2 11 -8 -4 -5 -11
-7 -24 -6 -30 6 -28 18 -43 31 -38 7 3 17 -2 20 -11 3 -9 11 -13 17 -9 5 3 7
1 4 -4 -8 -13 24 -51 39 -46 13 4 50 -35 41 -43 -4 -4 -18 1 -31 10 -14 9 -33
16 -43 16 -13 0 -15 2 -5 8 9 6 -4 20 -43 45 -57 39 -77 37 -25 -1 17 -13 30
-27 30 -33 0 -6 -12 -1 -27 11 -100 76 -149 115 -155 125 -5 7 -8 6 -8 -1 0
-6 7 -17 15 -24 8 -7 12 -16 9 -21 -3 -5 0 -9 6 -9 6 0 8 -5 4 -12 -5 -8 -2
-9 9 -5 10 4 16 2 14 -6 -1 -7 4 -11 10 -10 7 2 12 -3 10 -10 -1 -7 9 -12 26
-12 30 0 56 -28 37 -40 -5 -3 -10 1 -10 9 0 9 -5 16 -10 16 -7 0 -7 -7 0 -21
7 -11 9 -23 6 -27 -3 -3 -6 0 -6 7 0 8 -6 11 -16 7 -8 -3 -13 -2 -10 3 3 5 -1
11 -9 15 -8 3 -15 1 -15 -5 0 -6 -5 -7 -10 -4 -8 5 -7 12 2 23 8 10 9 13 1 9
-7 -4 -16 0 -21 9 -5 9 -15 14 -21 10 -6 -4 -9 -12 -5 -17 3 -5 10 -7 15 -4
15 10 10 -11 -6 -25 -8 -6 -19 -9 -25 -5 -6 3 -22 9 -37 11 -14 3 -35 10 -47
16 -20 11 -20 11 -1 19 12 4 14 8 6 8 -8 1 -11 4 -8 7 4 4 13 1 22 -6 12 -10
15 -10 15 0 0 10 3 10 15 0 17 -14 21 0 4 17 -6 6 -18 9 -27 5 -11 -4 -14 -1
-9 12 4 9 3 15 -2 11 -5 -3 -12 -1 -16 5 -3 5 -19 8 -34 5 -19 -3 -33 1 -42
12 -10 11 -10 14 -2 9 7 -4 22 -9 33 -11 19 -4 19 -3 4 21 -9 13 -23 24 -32
24 -13 0 -12 -3 4 -14 17 -14 16 -15 -23 -12 -32 2 -43 -1 -43 -11 0 -8 -5
-11 -11 -7 -6 3 -9 15 -6 25 3 11 1 17 -4 13 -5 -3 -9 -14 -9 -25 0 -10 -5
-19 -11 -19 -5 0 -8 4 -4 9 3 6 -5 15 -17 21 -22 11 -22 10 -4 -4 14 -11 15
-16 6 -16 -9 0 -7 -5 6 -14 19 -14 19 -15 0 -22 -13 -5 -21 -3 -24 5 -3 9 -7
9 -18 0 -9 -7 -14 -8 -14 -1 0 5 -10 8 -22 4 -14 -3 -19 -2 -14 6 4 7 2 12 -5
12 -7 0 -9 -8 -5 -20 7 -24 15 -60 9 -42 -3 6 -9 12 -14 12 -5 0 -9 8 -9 19 0
10 -7 24 -15 31 -12 10 -15 10 -15 0 0 -7 -6 -10 -14 -7 -7 3 -19 0 -26 -6 -9
-9 -11 -8 -8 8 2 13 10 19 23 17 17 -3 17 -2 5 13 -9 11 -16 13 -18 6 -2 -6
-8 -11 -13 -11 -23 0 -51 -39 -45 -62 7 -22 6 -22 -8 2 -9 14 -15 20 -16 14 0
-11 -49 -39 -63 -35 -5 1 -5 -3 -2 -9 7 -12 -39 -60 -58 -60 -9 0 -9 -2 0 -8
8 -5 9 -13 3 -22 -9 -13 -10 -13 -11 0 0 8 -6 3 -12 -11 -7 -15 -16 -27 -21
-28 -5 0 -10 -13 -11 -27 l-1 -26 18 22 c10 12 18 17 18 11 0 -7 6 -9 13 -6 6
4 4 0 -5 -8 -10 -8 -14 -18 -10 -22 4 -5 2 -5 -4 -2 -6 4 -16 -5 -23 -19 -6
-14 -16 -22 -21 -19 -6 4 -7 12 -4 18 4 7 1 7 -7 -1 -12 -11 -11 -15 4 -23 23
-13 22 -25 -3 -25 -11 0 -20 6 -20 14 0 7 -4 10 -10 7 -16 -10 -12 -21 15 -35
30 -16 33 -30 5 -23 -14 4 -20 0 -20 -10 0 -9 -4 -19 -10 -22 -6 -3 -7 1 -4 9
3 9 3 24 -1 34 -6 14 -9 12 -20 -13 -7 -16 -14 -24 -14 -16 -1 11 -4 11 -16 1
-14 -11 -13 -14 1 -24 14 -11 14 -13 0 -25 -9 -7 -14 -17 -11 -21 3 -4 -2 -10
-10 -14 -22 -8 -18 14 7 35 18 16 19 19 4 19 -10 0 -22 -12 -29 -29 -6 -16
-19 -32 -29 -34 -22 -6 -23 2 -2 18 16 11 16 12 0 18 -9 4 -14 3 -11 -2 7 -13
-34 -41 -60 -41 -31 0 -62 -25 -45 -35 9 -5 11 -4 6 3 -4 7 -3 12 3 12 5 0 9
-9 8 -19 -1 -16 -5 -18 -20 -9 -13 7 -23 6 -31 -2 -8 -8 -7 -10 5 -5 10 4 20
2 23 -4 5 -7 -4 -9 -24 -7 -17 2 -28 1 -25 -2 3 -3 -12 -13 -32 -23 l-38 -17
35 1 c19 0 38 5 42 11 5 6 8 2 8 -11 0 -15 -5 -21 -17 -19 -10 2 -34 -2 -53
-10 -19 -7 -29 -13 -22 -13 6 -1 12 -6 12 -12 0 -5 -4 -7 -10 -4 -5 3 -10 1
-10 -5 0 -7 -8 -9 -22 -5 -17 6 -20 4 -15 -9 5 -11 1 -16 -14 -16 -12 0 -23
-10 -29 -25 -5 -14 -16 -25 -25 -25 -8 0 -15 -5 -15 -10 0 -6 -6 -10 -12 -8
-7 1 -23 -3 -36 -10 -12 -7 -27 -10 -32 -7 -6 3 -7 -1 -4 -9 3 -9 10 -13 15
-10 5 3 6 -2 3 -10 -3 -9 -13 -16 -21 -16 -11 0 -13 -10 -9 -47 2 -27 5 -50 6
-53 1 -3 2 -8 1 -12 0 -5 6 -8 15 -8 14 0 14 -1 0 -16 -19 -18 -21 -28 -5 -18
9 5 10 -1 5 -20 -4 -15 -2 -26 4 -26 5 0 9 3 8 8 -3 10 22 55 36 64 6 4 18 8
26 7 8 0 3 -6 -12 -14 -18 -10 -29 -26 -32 -48 -14 -90 -14 -112 -4 -131 16
-29 27 -96 17 -96 -5 0 -9 16 -9 35 0 19 -4 35 -9 35 -5 0 -8 -30 -6 -67 1
-38 0 -62 -2 -55 -3 6 -8 10 -11 8 -4 -2 -8 10 -8 27 -5 106 -16 200 -25 207
-10 8 -22 53 -13 47 5 -3 9 5 9 18 0 13 -2 21 -4 19 -2 -2 -11 2 -19 9 -13 10
-14 9 -4 -9 8 -15 7 -30 -3 -60 -16 -44 -19 -94 -6 -94 9 0 5 -160 -5 -169
-14 -15 -31 -7 -27 13 4 21 4 21 -11 2 -9 -11 -16 -24 -16 -30 0 -5 -3 -7 -6
-3 -4 3 4 22 16 42 17 27 21 45 16 78 -3 23 -5 48 -5 55 -1 7 -6 10 -13 6 -7
-5 -9 -2 -6 7 3 8 2 23 -3 34 -6 17 -8 16 -10 -10 -1 -16 -3 -34 -4 -40 -2 -5
-3 -20 -4 -33 -1 -14 -5 -20 -12 -17 -6 4 -10 1 -8 -6 3 -25 -1 -39 -10 -39
-5 0 -7 8 -5 18 3 9 -1 26 -9 36 -14 19 -15 19 -31 -11 -9 -18 -13 -40 -10
-50 3 -10 -3 -6 -12 10 -10 15 -25 27 -32 27 -7 0 -17 13 -23 28 -12 36 -34
37 -48 3 -11 -24 -10 -25 4 -7 8 11 15 14 15 7 0 -7 -6 -19 -14 -26 -12 -12
-15 -12 -20 1 -10 25 -31 10 -28 -19 2 -15 -1 -27 -8 -27 -6 0 -8 5 -5 10 4 6
1 18 -7 27 -10 13 -10 17 0 20 14 5 6 23 -10 23 -6 0 -8 -3 -5 -7 4 -3 2 -12
-4 -19 -8 -10 -8 -22 0 -45 6 -18 9 -34 6 -37 -2 -3 -7 1 -9 9 -2 8 -7 21 -9
29 -3 8 -6 -3 -6 -25 -1 -57 11 -72 43 -57 14 6 26 8 26 3 0 -5 -13 -12 -30
-16 -29 -6 -42 -25 -18 -25 6 0 9 -3 6 -6 -4 -3 -16 -1 -27 5 -18 10 -20 9
-14 -6 5 -13 3 -15 -12 -9 -18 7 -18 6 0 -14 10 -11 15 -23 12 -27 -4 -3 -7
-1 -7 5 0 22 -16 12 -17 -10 0 -13 1 -17 4 -10 3 6 9 10 14 6 5 -3 12 2 15 10
3 9 11 16 16 16 7 0 7 -5 0 -13 -6 -7 -10 -23 -9 -36 1 -18 6 -21 24 -16 30 7
29 -3 -2 -39 -26 -30 -31 -41 -16 -31 5 3 12 1 16 -5 3 -5 -1 -10 -11 -10 -13
0 -15 -6 -9 -36 4 -24 3 -34 -4 -29 -7 3 -8 0 -5 -9 7 -17 24 -22 24 -7 0 5 7
12 16 15 13 5 15 1 10 -21 -5 -22 -4 -25 4 -11 6 10 12 31 13 47 1 16 5 27 9
25 3 -2 8 1 11 8 4 13 0 -9 -8 -44 -2 -10 0 -20 6 -23 8 -6 13 8 10 28 -1 5 3
6 9 2 5 -3 9 -17 8 -30 -2 -20 -7 -24 -23 -20 -15 5 -17 4 -5 -4 11 -7 15 -28
14 -86 0 -75 0 -76 17 -53 10 12 21 19 25 15 4 -4 2 -7 -3 -7 -6 0 -10 -11 -8
-25 3 -32 15 -45 15 -17 0 11 4 23 9 26 4 3 6 -6 3 -21 -3 -18 -1 -24 7 -19 6
4 11 2 11 -3 0 -6 -4 -11 -10 -11 -5 0 -10 -6 -10 -14 0 -8 9 -14 20 -13 10 1
17 3 15 6 -3 2 1 11 9 20 19 21 34 97 17 87 -6 -4 -10 -4 -9 1 3 11 -25 73
-34 73 -4 0 -5 -8 -1 -17 3 -10 3 -15 -1 -12 -4 4 -9 30 -10 58 -3 33 -10 57
-20 64 -18 14 -20 47 -8 137 7 46 10 54 11 29 0 -21 8 -42 18 -50 11 -10 14
-10 9 -1 -10 17 2 15 20 -3 9 -8 11 -15 5 -15 -17 0 -13 -56 4 -70 9 -7 13
-20 10 -28 -3 -8 0 -22 7 -31 7 -9 1 -6 -14 7 l-25 23 4 -28 c9 -61 14 -73 28
-73 8 0 15 -5 15 -11 0 -5 -5 -7 -12 -3 -8 5 -9 2 -5 -10 4 -10 7 -20 7 -22 0
-2 4 -4 8 -4 4 0 8 12 9 28 1 53 3 58 11 44 7 -10 13 -8 26 7 11 12 14 21 7
26 -6 3 -11 1 -11 -4 0 -6 -10 -10 -22 -10 -16 1 -18 3 -6 6 9 2 20 18 23 35
l7 30 17 -26 c10 -14 20 -24 23 -21 3 3 6 -6 6 -20 0 -15 10 -40 22 -57 13
-17 18 -28 11 -24 -14 9 -14 -7 0 -21 6 -6 13 -26 14 -45 4 -50 4 -50 16 -42
8 4 9 -3 4 -25 -7 -31 7 -44 19 -18 4 6 3 -4 0 -23 -4 -19 -8 -55 -9 -80 -2
-25 -7 -53 -10 -63 -6 -13 -3 -16 9 -11 9 3 16 14 16 24 0 9 13 35 29 57 16
23 27 44 23 49 -4 4 -1 4 6 0 8 -5 10 -12 4 -19 -5 -7 -12 -21 -16 -31 -5 -15
-4 -16 7 -8 10 8 13 6 13 -8 0 -10 -4 -18 -9 -17 -5 1 -11 -7 -13 -18 -1 -11
-8 -21 -15 -24 -7 -2 -2 -10 12 -18 15 -9 17 -12 5 -8 -16 5 -17 3 -6 -10 7
-8 22 -15 34 -14 15 0 17 2 6 7 -21 10 -24 56 -5 86 9 14 14 30 10 35 -3 7 0
8 9 5 8 -3 12 -12 9 -20 -3 -10 0 -12 10 -9 8 4 17 -1 21 -10 3 -9 2 -13 -4
-10 -12 8 -13 -35 -1 -54 13 -20 29 -5 24 22 -3 17 1 26 14 31 14 6 16 5 6 -5
-7 -7 -13 -19 -13 -27 0 -10 3 -10 16 2 25 26 30 18 5 -8 -17 -18 -19 -25 -9
-29 7 -2 5 -3 -4 -2 -9 2 -19 -3 -22 -11 -4 -11 3 -13 34 -8 25 4 40 3 40 -4
0 -6 -6 -13 -12 -15 -7 -3 2 -11 20 -17 24 -9 30 -15 21 -21 -7 -4 -18 -4 -24
0 -17 13 -67 12 -59 -1 5 -7 2 -9 -7 -6 -56 23 -53 23 -33 0 9 -12 22 -18 27
-15 6 3 7 2 4 -3 -8 -14 9 -38 22 -30 6 4 11 12 11 17 0 6 -4 7 -10 4 -5 -3
-10 -1 -10 4 0 6 6 11 13 11 15 0 40 -40 35 -56 -2 -6 13 -25 32 -42 19 -18
29 -32 23 -32 -7 0 -15 5 -18 10 -4 6 -11 8 -16 4 -5 -3 -8 0 -7 8 2 7 -3 12
-10 10 -13 -2 -68 32 -87 54 -26 32 -99 84 -111 80 -8 -3 -11 0 -8 8 3 8 1 17
-5 21 -7 3 -11 -3 -12 -17 0 -13 -2 -33 -3 -45 -2 -14 2 -20 8 -16 6 4 4 -2
-4 -12 -12 -14 -12 -19 -2 -23 10 -3 10 -7 1 -18 -8 -10 -8 -14 0 -14 15 0 14
-27 -2 -37 -10 -6 -10 -15 -1 -42 10 -30 12 -31 17 -12 3 11 0 21 -5 21 -7 0
-6 5 1 14 7 8 11 35 10 60 -2 25 0 49 4 52 4 4 7 -4 7 -17 1 -21 2 -22 11 -6
13 23 29 13 21 -15 -4 -16 -2 -19 9 -13 8 5 7 0 -3 -12 -23 -25 -23 -39 0 -22
9 7 7 2 -5 -12 -17 -19 -23 -38 -23 -72 0 -26 -4 -47 -10 -47 -5 0 -10 -8 -10
-17 0 -14 -2 -15 -9 -4 -7 11 -10 9 -16 -8 -3 -11 -11 -21 -16 -21 -6 0 -7 -5
-3 -12 4 -7 3 -8 -4 -4 -7 4 -12 2 -12 -3 0 -6 -5 -11 -11 -11 -8 0 -9 4 0 13
15 19 1 30 -18 14 -14 -11 -14 -10 -3 5 8 10 22 20 33 23 12 4 19 16 19 30 0
14 7 25 18 28 14 4 13 5 -4 6 -36 2 -94 -83 -94 -138 0 -18 -5 -31 -12 -31 -7
0 2 -12 20 -26 17 -14 32 -30 32 -36 0 -6 -10 -3 -22 8 -21 19 -21 19 -15 -1
6 -16 3 -15 -13 5 -11 14 -20 35 -20 47 0 12 -4 25 -10 28 -5 3 -10 -3 -10
-14 0 -12 -4 -21 -9 -21 -4 0 -6 -12 -4 -27 3 -20 2 -24 -5 -14 -7 10 -11 4
-14 -23 -2 -20 0 -36 4 -36 4 0 8 9 8 20 0 11 5 20 10 20 15 0 12 -26 -5 -43
-8 -8 -11 -17 -8 -20 3 -4 2 -14 -1 -24 -6 -15 -9 -15 -17 -3 -8 12 -10 9 -6
-12 4 -30 22 -24 -188 -64 -183 -34 -580 -130 -643 -154 -30 -11 -72 -22 -95
-23 -23 -1 -46 -7 -52 -13 -5 -7 -54 -26 -107 -44 -64 -21 -104 -40 -116 -55
-14 -17 -22 -21 -35 -13 -13 7 -17 5 -17 -11 0 -11 -5 -23 -11 -27 -8 -4 -9 1
-4 17 5 19 4 21 -4 9 -8 -11 -11 -12 -11 -2 0 7 -4 10 -10 7 -5 -3 -10 0 -10
7 0 9 -3 9 -10 -2 -15 -23 -12 -33 10 -27 17 4 20 0 20 -24 0 -21 -5 -29 -17
-29 -13 0 -14 3 -5 12 17 17 15 25 -8 31 -11 3 -20 2 -20 -2 0 -9 -102 -7
-117 2 -6 4 -19 4 -28 1 -14 -6 -12 -9 11 -19 16 -7 34 -9 40 -4 7 5 11 3 11
-6 0 -8 -4 -12 -9 -9 -4 3 -8 0 -8 -5 0 -6 7 -11 15 -11 8 0 15 5 15 11 0 6 8
3 17 -7 11 -11 18 -13 21 -5 2 6 8 9 13 5 5 -3 9 -1 9 5 0 6 7 8 15 5 15 -6
21 -34 7 -34 -18 0 -9 -36 9 -37 10 -1 19 5 19 13 0 8 -6 14 -12 14 -9 0 -8 4
2 10 8 5 11 10 5 10 -5 1 0 5 13 11 13 5 20 13 17 19 -3 6 1 13 9 16 9 3 16
12 16 20 0 8 5 14 11 14 6 0 9 -9 6 -20 -3 -12 0 -20 8 -20 7 0 18 -7 26 -16
12 -14 14 -14 26 2 12 17 13 16 13 -3 0 -12 -7 -29 -16 -37 -8 -9 -11 -16 -5
-16 6 0 15 9 21 21 7 11 14 18 17 15 3 -3 11 2 18 11 11 14 13 13 19 -11 4
-15 11 -24 16 -21 6 3 10 1 10 -4 0 -6 -8 -11 -18 -11 -10 0 -19 -7 -19 -15 0
-11 4 -12 14 -4 7 6 20 9 28 5 15 -5 15 -8 1 -28 -9 -12 -16 -26 -16 -30 0
-13 28 -9 33 5 4 10 6 10 6 0 1 -7 8 -13 17 -13 8 0 12 5 8 11 -4 8 -1 8 14 0
17 -9 23 -8 31 7 5 10 6 24 1 32 -7 12 -11 12 -27 0 -17 -13 -17 -13 -1 5 14
15 20 16 32 6 8 -7 18 -21 21 -32 5 -14 13 -17 34 -13 16 3 32 1 35 -5 5 -7
108 -10 311 -11 268 0 304 2 299 15 -5 11 -2 13 10 9 9 -3 16 -10 16 -15 0 -6
101 -9 251 -8 237 1 252 2 256 20 3 10 9 16 14 13 5 -3 7 -10 4 -15 -4 -5 4
-8 16 -6 13 2 25 9 27 15 2 6 -5 9 -15 7 -10 -1 -23 2 -29 7 -15 11 -36 7 -51
-12 -11 -13 -12 -13 -13 0 0 11 -3 11 -12 2 -17 -17 -29 -15 -22 3 4 8 1 15
-6 15 -6 0 -9 -4 -6 -9 7 -11 -14 -28 -31 -25 -7 1 -18 2 -24 3 -6 0 -8 11 -4
24 5 20 4 20 -17 -6 -22 -25 -46 -38 -33 -18 3 6 -5 8 -19 5 -18 -3 -28 2 -36
17 -15 28 -12 29 33 14 34 -11 38 -11 47 5 10 19 -3 22 -27 7 -8 -5 -13 -4
-13 2 0 6 -3 10 -7 9 -13 -3 -83 14 -83 20 0 3 6 13 13 22 6 9 1 5 -12 -9 -14
-15 -19 -27 -12 -29 14 -5 15 -42 0 -42 -5 0 -7 6 -3 13 5 9 4 9 -6 0 -9 -8
-19 -9 -32 -2 -10 5 -22 8 -27 5 -5 -3 -17 4 -27 16 -11 12 -13 18 -6 14 7 -4
19 -2 27 4 12 10 15 9 15 -4 0 -20 7 -20 26 -1 14 13 13 15 -3 16 -19 1 -33 4
-70 15 -22 6 -29 -6 -24 -39 1 -4 -11 0 -26 10 -40 25 -41 25 -9 17 21 -5 27
-3 24 6 -5 17 -58 23 -58 7 0 -7 -4 -6 -10 3 -6 9 -13 11 -17 5 -12 -15 -53
-36 -53 -27 0 4 5 13 12 20 16 16 0 16 -43 -1 -19 -7 -41 -12 -49 -11 -8 1
-23 2 -32 3 -10 0 -18 7 -18 14 0 8 -7 14 -15 14 -14 0 -19 -10 -16 -29 0 -5
-5 -9 -12 -9 -45 -5 -67 -4 -67 3 0 5 -8 8 -17 6 -13 -2 -18 3 -17 19 0 13 -3
23 -7 23 -5 0 -6 6 -3 14 3 8 1 17 -4 20 -5 3 -7 -15 -5 -44 2 -28 0 -50 -5
-50 -16 0 -22 13 -11 27 9 10 8 13 -4 13 -9 0 -19 -5 -22 -11 -5 -6 -20 3 -40
25 -32 35 -35 36 -106 37 -108 2 -33 15 105 18 60 1 113 4 118 7 8 5 12 -14
10 -51 -1 -18 0 -18 10 2 8 17 18 21 39 19 16 -2 29 0 29 4 0 4 12 5 26 2 19
-3 25 -1 20 7 -9 14 -76 15 -76 0 0 -8 -4 -8 -14 0 -11 9 -15 9 -19 -1 -4 -8
-6 -7 -6 5 -1 14 8 17 47 17 45 0 200 16 405 40 110 14 229 10 235 -8 2 -6 10
-8 18 -5 8 3 14 1 14 -4 0 -5 17 -8 38 -7 20 1 42 -3 49 -8 7 -5 18 -6 24 -2
9 5 10 0 6 -17 l-6 -24 17 22 c15 20 19 21 42 8 19 -11 21 -14 8 -15 -20 0
-22 -8 -9 -28 6 -11 12 -10 26 4 17 17 17 17 10 -5 -6 -20 -4 -22 13 -17 11 4
23 2 27 -4 4 -7 12 -7 24 0 10 5 21 6 25 3 3 -4 18 -8 34 -10 71 -9 87 -12 87
-13 0 -1 23 -3 50 -5 86 -6 105 -10 103 -20 -2 -5 -20 -9 -40 -8 -28 2 -38 -1
-38 -12 0 -8 5 -15 12 -15 6 0 3 -9 -7 -20 -26 -28 -32 -25 -28 16 1 20 0 34
-4 31 -3 -4 -6 -17 -7 -29 -1 -17 -7 -23 -26 -23 -14 0 -31 -7 -38 -15 -10
-12 -11 -10 -6 15 l7 30 -29 -30 -29 -30 33 -3 c18 -2 41 3 50 10 12 10 14 10
8 1 -5 -10 2 -13 28 -13 19 0 37 6 39 13 4 9 6 9 6 0 1 -7 8 -13 17 -13 10 0
14 5 10 16 -3 8 -2 12 4 9 6 -3 10 1 10 10 0 26 30 30 46 7 11 -16 23 -21 45
-18 16 2 32 -1 35 -5 3 -5 9 -7 14 -4 5 3 11 1 15 -5 9 -14 102 -13 111 2 4 7
3 8 -4 4 -7 -4 -12 -2 -12 4 0 6 -4 8 -10 5 -5 -3 -10 -1 -10 5 0 7 7 10 15 7
8 -4 17 -2 20 3 12 19 23 10 20 -15 l-2 -25 928 0 929 0 0 320 0 320 -22 0
c-21 0 -21 0 -2 15 16 12 17 14 2 15 -9 0 -19 6 -22 13 -3 8 -9 7 -20 -7 -8
-10 -13 -24 -9 -30 3 -6 2 -8 -2 -4 -5 5 -9 19 -11 32 -3 25 16 36 64 36 22 0
22 1 22 155 0 85 -4 155 -9 155 -5 0 -14 13 -21 30 -7 16 -16 27 -20 25 -5 -3
-12 0 -16 6 -4 7 -3 9 4 5 5 -3 12 0 14 6 3 7 13 -4 22 -24 10 -21 20 -38 22
-38 2 0 3 374 4 832 0 649 -3 834 -13 846 -10 13 -9 14 1 8 10 -6 12 13 11 87
l-1 95 -49 43 c-27 23 -49 47 -49 52 0 4 7 1 16 -7 21 -22 27 -20 14 4 -6 11
-15 20 -20 20 -6 0 -10 3 -10 8 0 4 14 8 32 9 42 3 59 20 36 37 -10 7 -15 16
-11 19 3 4 1 7 -5 7 -16 0 -15 -10 4 -31 14 -16 13 -17 -9 -15 -14 0 -23 5
-20 9 3 5 -5 18 -17 30 -22 19 -22 21 -5 27 17 6 17 7 -4 13 -13 3 -21 10 -18
14 7 12 -3 27 -28 42 -18 11 -18 11 5 5 14 -4 28 -12 32 -18 4 -6 8 -7 8 -1 0
13 -20 43 -20 30 0 -5 -9 1 -19 13 -16 22 -19 23 -34 8 -8 -9 -18 -13 -21 -8
-2 4 9 15 25 25 17 9 28 13 26 9 -3 -4 2 -14 11 -22 14 -13 15 -12 9 3 -3 9
-3 17 2 17 5 0 7 10 7 23 -1 12 2 31 7 42 10 19 9 19 -10 2 -45 -39 -28 38 29
138 6 11 12 33 13 49 2 25 0 27 -10 13 -7 -10 -15 -17 -19 -17 -12 0 -6 58 7
63 9 4 9 6 -1 6 -8 1 -27 -8 -43 -20 -16 -11 -37 -18 -45 -15 -10 4 -13 2 -7
-7 18 -29 6 -67 -21 -67 -6 0 -2 7 8 15 11 8 17 18 13 22 -4 3 -16 -2 -27 -12
-11 -10 -18 -20 -15 -23 2 -3 -7 -13 -20 -24 -31 -24 -33 -40 -2 -29 12 5 21
14 20 20 -2 7 5 7 20 2 26 -10 81 14 71 31 -4 6 -3 8 4 4 6 -3 13 -2 17 4 3 5
12 10 18 10 7 0 6 -4 -3 -10 -8 -5 -10 -10 -3 -10 20 0 2 -37 -23 -49 -30 -13
-34 -14 -34 -2 0 5 10 11 22 14 12 4 19 9 15 13 -3 4 -18 -1 -33 -11 -24 -15
-25 -19 -10 -27 9 -5 22 -6 29 -2 7 5 7 1 -2 -10 -9 -11 -17 -13 -21 -6 -4 6
-14 8 -22 5 -9 -4 -19 -2 -23 4 -3 7 0 8 10 5 11 -5 14 -2 9 10 -7 18 -22 17
-43 -2 -8 -8 -24 -11 -37 -8 -12 3 -26 2 -29 -4 -3 -5 -11 -10 -16 -10 -6 0 4
14 21 31 24 24 28 34 18 40 -8 5 -15 2 -19 -9 -4 -9 -19 -28 -35 -42 -15 -14
-24 -19 -20 -12 11 18 -14 15 -38 -5 -20 -17 -20 -17 -7 0 7 9 10 17 7 17 -18
0 -105 -43 -101 -50 3 -4 -6 -7 -20 -7 -14 0 -22 3 -19 8 3 5 10 9 15 9 6 0
31 14 56 31 30 21 42 34 35 41 -7 7 -23 -1 -49 -26 -21 -20 -44 -36 -52 -36
-7 0 -2 10 13 21 16 12 25 27 22 36 -3 8 -1 11 4 8 6 -3 10 -1 10 5 0 9 12 16
68 35 7 2 14 5 17 5 3 0 30 13 60 29 60 32 66 32 33 1 -40 -37 -7 -21 53 27
71 56 123 123 151 196 72 193 75 317 8 450 -16 33 -30 66 -30 73 0 9 -33 12
-122 13 l-123 1 -29 -31z m-3439 -4039 c103 0 112 -2 118 -20 7 -23 16 -25 34
-7 10 10 11 8 5 -6 -7 -20 12 -20 34 1 10 9 18 10 26 2 7 -5 16 -6 21 -2 4 4
4 -4 0 -18 -7 -24 -7 -24 9 -5 8 11 16 15 16 10 0 -22 -22 -35 -43 -24 -13 8
-17 8 -13 1 3 -6 2 -13 -4 -17 -5 -3 -10 -2 -10 3 0 6 -10 10 -22 10 -13 1
-42 3 -65 4 -24 2 -43 0 -43 -5 0 -5 -9 -5 -20 -2 -12 4 -27 2 -34 -5 -11 -8
-14 -7 -12 6 0 9 -5 19 -11 21 -8 3 -13 -5 -13 -21 0 -18 -5 -26 -17 -26 -10
0 -14 4 -8 8 14 10 17 50 5 70 -7 12 -9 13 -10 3 0 -10 -9 -12 -38 -8 -23 4
-47 1 -63 -7 -23 -12 -27 -11 -38 5 -6 11 -7 19 -1 19 5 0 7 6 4 14 -4 11 3
12 38 5 24 -4 93 -8 155 -9z"/>
<path d="M3358 4223 c-19 -3 -28 -10 -28 -23 0 -19 -25 -34 -41 -24 -14 8 -40
-22 -33 -39 3 -8 1 -18 -4 -21 -5 -3 -12 4 -16 16 l-5 23 -21 -23 c-15 -16
-19 -29 -14 -45 6 -19 5 -20 -9 -9 -13 11 -16 10 -19 -10 -4 -22 -5 -22 -13
-3 -11 24 -57 66 -65 58 -3 -3 0 -8 6 -10 14 -5 0 -76 -15 -81 -6 -2 -11 -10
-11 -19 0 -10 6 -13 23 -8 14 5 9 -2 -15 -19 -21 -15 -38 -34 -38 -43 0 -13 5
-12 25 7 28 27 34 17 8 -14 -10 -12 -11 -15 -3 -8 25 22 30 13 10 -20 -22 -39
-31 -81 -35 -168 -2 -60 -2 -63 9 -30 6 19 17 45 24 58 7 12 10 22 7 22 -3 0
1 10 10 23 8 13 12 27 8 32 -5 4 -3 5 4 1 8 -4 15 3 19 19 5 20 11 25 25 22
11 -3 19 -1 19 4 0 5 -6 9 -12 9 -16 1 33 39 49 40 7 0 10 9 8 21 -4 17 -2 19
10 9 18 -15 20 -24 3 -14 -6 4 -8 3 -5 -4 4 -5 16 -8 27 -5 12 3 20 0 20 -6 0
-7 -4 -10 -10 -6 -5 3 -20 -5 -32 -17 -13 -13 -30 -22 -38 -21 -8 1 -10 0 -4
-3 16 -7 5 -46 -11 -40 -19 7 -27 -5 -13 -21 8 -11 7 -12 -5 -8 -12 5 -14 -1
-11 -37 3 -28 0 -46 -9 -53 -9 -7 -11 -19 -6 -35 7 -24 7 -24 8 -2 2 34 21 26
21 -9 0 -17 -4 -28 -10 -24 -5 3 -10 1 -10 -4 0 -6 8 -11 18 -11 13 0 14 -2 3
-9 -22 -14 6 -24 47 -15 22 4 30 9 20 11 -10 3 -18 11 -18 19 0 8 -5 14 -11
14 -5 0 -7 5 -4 10 4 6 10 8 15 5 5 -3 11 -1 15 5 3 5 1 10 -4 10 -6 0 -11 5
-11 11 0 5 4 7 10 4 6 -3 7 1 4 9 -3 9 -2 16 4 16 6 0 8 10 5 23 -4 18 -3 19
6 7 6 -8 8 -23 5 -33 -3 -10 0 -24 6 -32 10 -12 10 -15 0 -15 -20 0 -3 -13 22
-17 18 -3 19 -1 8 12 -12 14 -9 15 19 10 l33 -6 -28 24 c-21 18 -24 26 -14 32
8 5 11 4 7 -1 -3 -6 3 -15 13 -22 17 -10 18 -9 13 6 -6 14 -4 15 9 4 20 -16
81 -34 73 -21 -4 5 -2 9 4 9 5 0 14 -7 19 -16 8 -15 10 -15 16 1 3 9 4 21 0
26 -3 5 4 9 16 9 12 0 18 5 15 10 -3 6 -17 8 -30 6 -14 -3 -27 0 -31 5 -9 15
5 24 17 12 6 -6 20 -8 32 -5 20 5 20 6 1 14 -15 7 -14 8 8 5 18 -3 25 0 20 7
-14 24 -11 36 8 26 28 -15 34 -12 19 7 -13 16 -13 16 11 0 31 -21 41 -22 33 0
-4 11 -3 14 5 9 8 -5 12 0 12 13 0 12 5 21 11 21 6 0 9 -7 5 -15 -5 -15 29
-55 48 -55 6 0 -2 11 -19 25 -16 13 -25 24 -18 25 7 0 10 7 7 15 -5 11 -2 13
10 9 9 -3 14 -9 12 -13 -3 -4 -1 -13 3 -20 6 -9 9 -4 9 13 0 14 -3 26 -7 26
-4 0 -6 17 -6 38 0 33 2 37 27 38 15 1 25 -3 22 -7 -3 -5 0 -9 5 -9 16 0 14 8
-14 44 -30 40 -31 46 -4 39 12 -4 25 0 31 8 8 11 9 11 5 -2 -3 -10 5 -24 22
-37 l28 -20 0 36 c0 22 -8 45 -19 56 -11 12 -16 28 -12 40 4 15 3 17 -4 7 -8
-11 -19 -7 -58 20 -43 30 -57 34 -111 34 -67 0 -81 16 -22 25 l34 5 -45 18
c-43 16 -99 19 -162 10z"/>
<path d="M1040 2023 c0 -14 146 -55 185 -52 19 2 37 0 41 -4 4 -4 35 -7 68 -7
40 0 56 -3 47 -9 -23 -14 92 -26 118 -12 11 7 21 8 21 3 0 -20 79 -40 188 -48
42 -3 93 -12 112 -19 34 -14 189 -40 280 -49 46 -4 320 -47 424 -66 55 -11 60
-10 80 11 22 23 21 23 -31 2 -16 -6 -16 -5 1 12 19 19 17 20 -145 42 -90 12
-222 32 -294 43 -71 11 -247 36 -390 55 -378 51 -487 69 -514 84 -29 16 -191
28 -191 14z"/>
<path d="M1075 1680 c-4 -6 -10 -8 -15 -5 -15 9 -40 -7 -40 -26 0 -10 -9 -34
-19 -53 -11 -19 -17 -36 -14 -39 3 -3 0 -12 -6 -19 -45 -53 -56 -76 -57 -118
-1 -25 2 -50 7 -55 17 -21 13 -90 -7 -120 -16 -24 -20 -26 -22 -11 -3 14 -10
17 -33 12 -15 -3 -31 -1 -34 4 -10 16 -20 12 -30 -12 -14 -31 32 -83 64 -73
13 4 21 2 21 -5 0 -7 8 -9 19 -5 11 3 22 1 26 -5 9 -15 66 -12 114 5 35 12 50
12 86 3 35 -10 49 -9 69 1 13 8 31 11 39 8 8 -3 20 0 26 6 6 6 11 7 11 1 0 -5
5 -2 11 6 8 11 12 12 16 3 7 -18 23 -16 23 2 0 8 7 15 15 15 8 0 15 7 15 15 0
8 7 15 15 15 8 0 15 7 15 15 0 8 -6 15 -14 15 -18 0 -32 58 -17 73 18 18 13
36 -17 65 -16 15 -41 50 -57 77 -48 85 -195 229 -210 205z"/>
<path d="M19 370 c-1 -3 -1 -8 0 -12 0 -5 -3 -8 -9 -8 -17 0 -12 -87 5 -94 20
-7 19 -33 -1 -44 -12 -6 -15 -17 -11 -33 5 -19 13 -24 39 -25 18 -1 40 -3 48
-5 8 -2 14 2 13 8 -2 7 5 12 15 11 35 -3 63 2 58 11 -3 5 2 15 11 22 9 8 17
12 17 10 2 -8 51 12 58 23 11 16 10 28 -2 21 -6 -3 -10 2 -10 12 -1 16 -2 16
-13 3 -7 -9 -20 -14 -30 -12 -10 2 -25 -5 -32 -15 -13 -17 -14 -17 -9 2 5 20
64 62 64 45 0 -4 8 -7 18 -5 10 1 16 10 15 21 -1 11 0 13 3 6 5 -10 9 -10 20
-1 19 15 18 40 -1 33 -8 -4 -15 -1 -15 5 0 7 -8 8 -24 1 -38 -14 -86 -9 -87 9
0 10 -2 12 -6 4 -2 -7 -18 -13 -34 -13 -16 0 -29 5 -29 13 0 11 -68 19 -71 7z"/>
<path d="M1303 338 c-2 -5 1 -8 7 -8 6 0 9 -4 6 -9 -3 -5 4 -11 15 -14 15 -4
23 0 26 14 3 10 9 19 14 19 5 0 3 -13 -6 -30 -14 -26 -24 -34 -45 -32 -3 0 -7
-8 -7 -19 -2 -16 1 -17 18 -9 11 6 25 8 31 4 8 -5 9 -2 5 10 -4 11 -1 19 11
23 9 4 20 11 24 17 4 6 8 1 8 -13 0 -16 -4 -22 -15 -17 -20 7 -19 -11 0 -22
20 -11 25 -73 6 -80 -10 -3 -11 0 -5 9 5 9 -1 8 -19 -4 -27 -18 -28 -18 -15 3
7 11 18 20 25 20 7 0 13 5 13 11 0 5 -6 7 -12 3 -8 -5 -7 0 2 11 14 17 13 18
-5 11 -11 -5 -28 -9 -38 -10 -10 -2 -23 -9 -28 -17 -7 -12 -9 -12 -9 1 -1 8
-6 4 -11 -9 -7 -18 -15 -22 -35 -18 -14 2 -31 -2 -39 -10 -8 -8 -19 -12 -24
-9 -5 4 -16 0 -24 -8 -13 -13 -16 -12 -26 10 -6 14 -11 31 -11 39 0 8 -6 12
-14 9 -11 -4 -13 1 -10 18 4 21 3 21 -4 3 -5 -11 -7 -27 -5 -35 3 -10 0 -9 -7
3 -10 15 -13 16 -26 2 -18 -18 -38 -20 -28 -3 4 7 3 8 -5 4 -6 -4 -18 -2 -26
4 -12 10 -13 8 -10 -9 4 -23 -20 -30 -28 -8 -2 6 -6 0 -9 -16 -4 -22 -3 -25 8
-16 11 9 14 7 15 -12 0 -13 3 -18 6 -11 2 6 9 12 15 12 7 0 6 -5 -2 -14 -6 -8
-18 -12 -26 -9 -9 3 -14 -2 -15 -13 0 -18 -1 -18 -8 0 -7 17 -9 16 -30 -10
-12 -16 -18 -20 -13 -9 7 14 6 24 -3 32 -7 6 -15 9 -18 6 -3 -3 -11 -2 -17 2
-8 5 -8 11 2 23 10 15 10 15 -2 4 -8 -7 -15 -17 -15 -23 0 -5 -3 -9 -7 -10 -4
0 -21 -4 -38 -9 -16 -5 -30 -5 -30 0 0 13 -27 5 -50 -15 -12 -11 -20 -13 -20
-6 0 7 -4 9 -10 6 -5 -3 -10 -1 -10 4 0 6 5 11 12 11 6 0 8 3 5 6 -4 4 -13 1
-21 -5 -11 -10 -17 -7 -30 11 -13 18 -16 19 -16 5 0 -9 -4 -17 -10 -17 -5 0
-10 4 -10 9 0 5 -7 12 -16 15 -8 3 -13 2 -10 -2 3 -4 -4 -14 -15 -21 -19 -11
-20 -10 -18 11 7 58 -26 87 -68 60 -20 -13 -23 -12 -23 2 0 19 2 19 -47 2 -37
-13 -79 -7 -55 8 6 3 12 0 14 -6 3 -8 10 -4 17 11 12 21 11 23 -3 18 -8 -3
-22 1 -31 9 -9 9 -15 11 -15 4 0 -7 -12 -9 -36 -4 -26 5 -35 4 -30 -5 5 -7 1
-9 -8 -5 -10 4 -16 1 -16 -9 0 -8 -5 -17 -12 -19 -7 -3 -6 -7 5 -11 11 -4 17
-1 17 8 0 19 8 19 27 0 8 -8 19 -13 24 -10 13 9 11 -9 -3 -23 -9 -9 -9 -12 1
-12 11 0 11 -3 1 -15 -7 -8 -16 -12 -21 -9 -5 3 -9 0 -9 -5 0 -17 28 -13 39 7
9 15 12 15 20 2 9 -13 12 -12 24 4 13 17 14 17 20 2 5 -11 3 -15 -5 -10 -7 5
-8 3 -4 -5 5 -7 14 -10 20 -8 7 3 26 -5 42 -19 16 -13 39 -23 51 -24 12 0 25
-5 28 -10 4 -6 11 -8 16 -4 5 3 16 1 24 -6 15 -12 38 -3 85 35 l25 20 -19 -22
c-10 -12 -15 -27 -11 -32 3 -6 2 -11 -2 -11 -5 0 -18 -7 -29 -15 -19 -15 -19
-15 1 -9 27 9 56 35 50 45 -3 4 22 7 55 5 36 -1 61 2 63 8 2 7 10 6 22 -4 14
-11 19 -12 22 -2 7 19 30 14 36 -9 5 -20 6 -20 33 -2 19 12 25 13 20 4 -7 -11
-3 -13 18 -9 14 3 26 2 26 -1 0 -12 119 -4 134 8 11 10 16 10 16 2 0 -9 5 -9
20 -1 15 8 20 8 20 -1 0 -6 7 -9 15 -6 8 4 17 2 21 -4 4 -7 12 -5 23 5 13 12
20 13 28 5 8 -8 16 -3 27 20 14 26 20 30 35 22 10 -6 21 -7 25 -4 4 4 20 8 36
9 26 2 28 0 19 -17 -12 -24 -23 -25 -15 -2 4 12 -1 10 -15 -6 -15 -18 -23 -22
-28 -13 -9 15 -41 5 -57 -17 -8 -10 -30 -15 -71 -15 -49 0 -59 -3 -59 -18 0
-17 27 -18 473 -17 459 0 472 1 478 20 4 11 10 17 15 14 5 -3 14 4 21 16 6 12
14 18 18 13 7 -11 21 -12 39 -1 17 11 15 -8 -3 -23 -8 -7 -15 -8 -15 -3 0 17
-24 10 -48 -14 l-23 -23 161 0 c107 0 160 4 160 11 0 6 -9 8 -21 4 -16 -5 -19
-4 -14 5 6 9 3 10 -10 3 -19 -11 -65 -5 -65 8 0 5 9 9 19 9 29 0 36 18 16 40
-10 11 -15 26 -12 34 5 13 2 13 -18 4 -20 -9 -23 -17 -21 -53 2 -37 1 -41 -12
-28 -8 8 -21 12 -28 9 -8 -3 -21 -9 -30 -13 -12 -4 -15 -2 -12 8 8 21 -10 49
-32 49 -11 0 -20 -4 -20 -9 0 -4 -12 -6 -26 -3 -15 3 -24 1 -21 -4 3 -5 -6 -9
-19 -9 -13 0 -24 3 -24 6 0 3 -7 6 -15 6 -8 0 -15 -5 -15 -11 0 -6 -4 -6 -11
1 -9 9 -4 18 17 37 16 14 33 26 37 26 4 0 4 8 -1 17 -5 10 -7 24 -5 31 6 15
-9 16 -23 2 -8 -8 -15 -6 -23 4 -10 11 -18 13 -31 6 -12 -7 -21 -7 -25 0 -4 6
-12 5 -24 -2 -25 -15 -15 -48 15 -48 12 0 26 -5 29 -10 4 -6 11 -7 17 -4 6 4
8 2 4 -4 -3 -5 -1 -12 6 -14 7 -3 2 -7 -10 -10 -12 -4 -22 -2 -22 4 0 5 -5 6
-12 2 -8 -5 -9 -2 -4 11 6 16 2 17 -31 11 -21 -3 -43 -6 -50 -6 -6 0 -15 -9
-18 -20 -4 -11 -10 -18 -15 -15 -5 3 0 22 12 41 16 27 23 32 30 22 8 -10 9 -9
5 3 -3 9 0 22 6 29 9 10 9 11 -3 4 -8 -5 -19 -9 -25 -9 -5 0 -10 -7 -10 -15 0
-11 -11 -14 -44 -12 -24 1 -49 -2 -56 -8 -9 -8 -17 -6 -29 5 -15 15 -16 15
-16 -4 0 -19 -8 -25 -27 -18 -5 1 -7 5 -6 9 2 4 -2 19 -7 34 -7 18 -15 24 -27
20 -14 -6 -14 -4 -2 10 13 16 12 16 -16 1 -21 -10 -36 -12 -48 -6 -13 8 -17 6
-17 -8 0 -14 -2 -15 -9 -4 -10 15 -71 24 -71 10 0 -5 10 -9 23 -10 21 -1 21
-1 -3 -8 -19 -6 -27 -3 -32 11 -4 10 -16 18 -27 18 -10 0 -21 6 -24 14 -8 21
4 28 18 9 8 -11 17 -13 26 -7 21 13 39 13 40 1 0 -7 4 -4 8 6 4 10 11 18 15
17 11 -2 26 20 26 38 0 8 -7 11 -18 8 -10 -4 -27 1 -38 9 -16 12 -17 14 -2 15
9 0 18 -5 20 -11 2 -5 11 -7 20 -4 15 6 15 8 -3 26 -21 21 -39 25 -39 8 0 -7
-11 -9 -30 -6 -16 4 -32 2 -35 -3 -8 -13 -35 -1 -35 16 0 11 -12 14 -51 12
-28 -2 -53 -6 -56 -10z"/>
<path d="M1815 294 c-16 -18 -32 -31 -34 -28 -2 2 -10 -1 -18 -8 -10 -8 -12
-8 -8 4 4 9 -1 18 -11 22 -12 4 -15 2 -10 -9 3 -8 1 -15 -4 -15 -6 0 -10 5
-10 11 0 8 -4 8 -14 0 -11 -9 -18 -8 -30 4 -9 9 -16 12 -16 6 0 -6 -10 -15
-21 -22 -15 -8 -19 -8 -15 0 7 10 -6 16 -27 12 -4 -1 -3 7 3 18 13 26 13 28
-5 28 -9 0 -15 -10 -15 -23 0 -12 -3 -29 -6 -37 -4 -12 0 -14 14 -10 12 3 22
-1 26 -12 5 -14 1 -16 -24 -10 -34 8 -60 -3 -39 -16 7 -4 19 -3 25 2 8 7 14 6
19 -1 4 -7 19 -2 43 16 19 15 32 22 28 16 -4 -7 -1 -13 8 -13 9 -1 21 -3 26
-4 6 -1 15 -3 21 -4 6 0 8 -9 4 -20 -7 -23 21 -37 29 -15 3 9 1 12 -4 9 -6 -3
-10 -2 -10 3 0 6 8 13 17 16 18 7 35 -12 28 -31 -7 -19 1 -16 26 10 12 12 19
16 15 10 -12 -21 40 -11 54 10 9 15 9 18 -2 11 -10 -6 -10 -4 1 9 15 19 36 24
25 6 -5 -8 1 -10 20 -7 15 3 26 1 27 -6 0 -6 4 -2 9 9 5 11 9 14 9 6 1 -8 7
-11 18 -7 9 4 20 1 25 -6 6 -11 10 -10 17 1 6 9 11 10 15 2 5 -7 13 -8 25 -1
11 6 30 6 50 0 18 -5 33 -5 36 1 8 12 52 12 60 -1 7 -11 25 -4 25 10 0 5 -7 6
-17 3 -12 -5 -14 -3 -8 7 6 9 4 11 -5 5 -10 -6 -12 -1 -7 21 5 27 4 27 -9 9
-13 -17 -16 -18 -24 -5 -7 10 -10 11 -10 2 0 -8 -9 -11 -25 -8 -17 3 -25 1
-23 -7 2 -7 -2 -13 -7 -14 -6 -1 -9 5 -9 13 1 8 -5 14 -15 13 -9 -1 -27 -1
-41 0 l-25 2 25 13 c14 8 28 12 32 10 5 -3 8 2 8 10 0 9 -7 16 -15 16 -8 0
-15 -4 -15 -10 0 -5 -5 -10 -11 -10 -5 0 -7 6 -3 13 6 9 5 9 -8 0 -8 -7 -19
-9 -23 -5 -5 4 -5 2 -2 -4 8 -15 -41 -25 -50 -11 -3 5 -14 -1 -25 -14 -11 -14
-16 -17 -12 -7 5 15 0 16 -33 12 -21 -3 -33 -2 -27 3 9 6 9 11 0 19 -8 8 -19
2 -41 -22z"/>
<path d="M535 292 c-5 -4 -17 -16 -25 -26 -14 -18 -13 -19 2 -13 10 3 17 3 17
-1 -4 -23 7 -27 64 -26 34 0 64 2 67 3 18 9 50 6 50 -6 0 -7 5 -13 11 -13 6 0
9 6 6 14 -4 10 2 13 23 12 37 -3 49 -14 30 -27 -12 -9 -11 -9 5 -4 11 4 35 9
53 11 64 6 71 28 11 38 -27 4 -47 2 -57 -6 -13 -11 -15 -10 -9 5 6 16 2 18
-31 16 -23 -2 -36 1 -35 8 3 14 -144 12 -166 -1 -11 -7 -13 -5 -8 7 7 19 6 20
-8 9z"/>
<path d="M31 81 c-18 -18 -20 -18 -25 -3 -2 9 -4 -2 -3 -25 0 -24 5 -43 10
-43 4 0 6 8 2 19 -3 12 0 21 11 25 10 4 14 2 12 -6 -4 -12 14 -38 27 -38 3 0
4 10 1 23 -3 12 -3 16 0 10 3 -7 13 -13 22 -14 11 0 12 -2 4 -6 -6 -2 -10 -9
-6 -14 10 -16 24 -10 24 12 0 11 4 18 10 14 5 -3 7 -11 4 -18 -3 -9 13 -13 57
-15 54 -2 61 0 66 18 3 11 9 20 14 20 5 0 9 5 9 12 0 9 -3 9 -12 0 -7 -7 -20
-12 -29 -12 -10 0 -20 -6 -22 -12 -3 -8 -6 -5 -6 5 -1 10 -5 15 -11 12 -14 -9
-12 8 3 24 10 11 9 13 -5 8 -10 -4 -18 -3 -18 2 0 5 -10 7 -22 7 -13 -1 -27 0
-33 3 -26 13 -67 9 -84 -8z"/>
</g>
</svg>
