<?xml version="1.0" standalone="no"?>
<!DOCTYPE svg PUBLIC "-//W3C//DTD SVG 20010904//EN"
 "http://www.w3.org/TR/2001/REC-SVG-20010904/DTD/svg10.dtd">
<svg version="1.0" xmlns="http://www.w3.org/2000/svg"
 width="512.000000pt" height="512.000000pt" viewBox="0 0 512.000000 512.000000"
 preserveAspectRatio="xMidYMid meet">
<metadata>
Created by potrace 1.16, written by Peter Selinger 2001-2019
</metadata>
<g transform="translate(0.000000,512.000000) scale(0.100000,-0.100000)"
fill="#000000" stroke="none">
<path d="M3495 4915 c-14 -13 -25 -31 -25 -40 0 -24 67 -77 121 -95 48 -17 49
-16 33 1 -15 17 -15 19 -1 25 8 3 26 -1 39 -10 13 -8 37 -17 53 -19 52 -8 69
-18 90 -50 15 -23 28 -32 48 -32 19 -1 36 -11 53 -32 16 -21 30 -30 42 -27 14
5 15 4 2 -5 -13 -10 -11 -14 10 -31 27 -21 57 -22 52 -1 -1 7 2 10 8 6 14 -9
-7 -35 -28 -35 -8 0 -41 10 -73 21 -32 12 -66 18 -76 15 -14 -6 -15 -9 -4 -15
9 -6 5 -10 -15 -15 -23 -6 -32 -3 -45 16 -43 57 -48 59 -24 11 14 -29 31 -53
38 -53 6 0 31 10 54 22 40 22 43 22 78 5 53 -25 81 -21 121 17 19 19 31 36 27
37 -5 2 -30 32 -56 66 -109 142 -224 215 -367 233 -118 14 -128 13 -155 -15z"/>
<path d="M2275 4784 c-394 -60 -768 -235 -1048 -492 -47 -43 -61 -51 -73 -42
-7 7 -28 10 -44 8 -25 -4 -30 -2 -24 11 13 29 16 69 7 85 -4 8 -42 40 -82 71
-73 54 -116 68 -147 47 -17 -11 -100 -162 -143 -260 -47 -106 -103 -279 -126
-387 -9 -44 -26 -98 -36 -121 -23 -49 -24 -83 -4 -131 8 -19 15 -37 15 -39 0
-1 -15 0 -33 2 -19 3 -39 0 -49 -8 -17 -13 -76 -188 -99 -291 -10 -47 -15 -56
-28 -51 -37 16 -78 16 -96 -2 -15 -15 -16 -28 -11 -83 10 -93 52 -279 91 -395
29 -85 31 -101 19 -113 -18 -18 -18 -59 1 -169 43 -249 168 -593 226 -625 25
-13 123 2 173 27 37 18 41 13 16 -18 l-20 -26 83 2 c80 1 83 2 111 34 15 17
24 32 19 32 -6 0 -18 -9 -28 -20 -18 -19 -18 -19 -41 25 -20 41 -21 48 -8 73
19 37 18 66 -4 85 -16 14 -26 15 -83 5 -51 -9 -71 -18 -102 -47 l-38 -36 17
40 c9 22 20 45 25 51 4 5 6 20 2 32 -4 18 -1 22 20 22 15 0 32 9 41 21 10 14
28 23 51 25 22 1 48 12 62 26 25 22 25 22 14 1 -9 -18 -7 -26 15 -52 14 -17
32 -31 40 -31 13 0 35 -21 68 -65 14 -19 15 -19 27 13 16 46 23 33 9 -17 -8
-30 -8 -47 0 -61 17 -31 30 -14 18 21 -7 21 -7 33 -1 38 18 11 117 155 136
196 18 39 17 42 -2 85 l-20 45 24 20 c13 11 25 31 27 45 2 18 12 27 36 34 24
7 32 14 32 32 0 15 6 24 15 24 13 0 14 -4 5 -20 -12 -22 -7 -25 20 -10 17 9
22 4 41 -40 12 -27 25 -50 29 -50 8 0 90 133 90 147 0 4 -13 27 -28 51 -20 30
-27 51 -24 72 6 42 17 38 17 -7 0 -21 5 -38 13 -41 10 -3 12 4 8 29 -3 19 -8
47 -11 63 -2 16 0 37 6 47 10 20 -13 79 -31 79 -6 0 -10 4 -10 10 0 18 31 -3
46 -31 14 -28 16 -86 3 -95 -4 -2 -2 -25 3 -51 17 -78 43 -97 54 -38 3 19 10
32 15 29 5 -3 14 7 21 21 13 28 0 62 -21 58 -11 -3 -24 34 -21 58 7 46 -1 81
-19 86 -11 3 -21 14 -23 26 -2 11 -8 22 -14 24 -15 5 -54 -58 -54 -88 -1 -21
-3 -19 -16 10 -8 19 -13 40 -10 47 2 6 -1 39 -8 72 -11 56 -11 61 11 92 22 32
22 63 0 41 -20 -20 -37 -12 -37 18 0 45 -12 91 -21 85 -12 -7 -11 63 1 106 9
31 7 37 -21 62 l-31 29 41 44 c23 25 41 51 41 60 0 8 4 15 9 15 5 0 7 -9 4
-20 -4 -16 0 -20 17 -20 17 0 21 5 18 23 -1 13 5 32 15 41 16 17 17 17 24 -1
6 -15 8 -13 13 11 3 16 13 34 23 40 15 9 23 5 48 -22 17 -19 29 -44 29 -60 1
-39 42 -82 79 -82 41 0 63 -24 51 -54 -7 -19 -3 -33 18 -65 23 -35 32 -41 62
-41 47 -1 65 -18 68 -64 2 -31 11 -46 40 -72 20 -18 42 -33 47 -34 6 0 27 -5
48 -11 34 -9 37 -13 31 -37 -11 -52 -14 -58 -23 -43 -14 21 -31 -19 -20 -44 9
-18 9 -18 5 3 -2 12 0 22 5 22 5 0 9 -13 9 -28 0 -15 6 -34 13 -41 10 -11 9
-13 -5 -8 -21 8 -24 -11 -4 -19 8 -3 12 -12 9 -20 -3 -9 2 -14 15 -14 22 0 39
-16 22 -22 -6 -2 6 -26 25 -55 34 -51 45 -80 25 -68 -25 16 -6 -36 22 -60 38
-32 47 -20 19 26 -22 36 -26 49 -13 49 12 0 68 -101 87 -159 9 -29 24 -65 31
-80 l14 -26 1 40 1 40 10 -45 c6 -25 14 -50 19 -56 7 -8 2 -14 -15 -18 -19 -5
-24 -11 -19 -24 5 -14 3 -15 -8 -5 -24 23 -35 13 -48 -44 -10 -48 -10 -64 2
-91 7 -18 16 -30 19 -27 3 3 8 -5 12 -18 4 -16 15 -26 31 -29 14 -3 25 -2 25
1 -1 14 -16 29 -35 33 -15 2 -17 6 -7 11 16 11 72 -47 72 -75 0 -11 13 -32 29
-48 16 -16 26 -32 23 -35 -3 -3 0 -5 6 -5 7 0 12 5 12 10 0 6 5 10 10 10 6 0
5 -8 -2 -20 -12 -19 -13 -19 -36 5 -22 24 -62 35 -62 17 0 -5 13 -21 29 -36
16 -16 27 -34 25 -40 -3 -7 0 -25 6 -41 7 -19 8 -31 0 -39 -16 -16 -12 -33 8
-39 11 -2 22 -18 27 -38 l9 -34 4 34 c2 25 6 31 12 21 7 -11 12 -7 20 15 9 22
9 35 0 48 -9 16 -8 18 6 15 18 -3 26 -26 38 -118 5 -35 2 -50 -13 -70 -16 -20
-21 -22 -35 -11 -19 16 -22 1 -3 -18 10 -11 8 -11 -10 -2 -31 16 -94 148 -89
187 3 18 -3 38 -14 51 -17 22 -17 22 -18 -22 -1 -24 3 -47 8 -50 6 -4 10 -22
10 -41 0 -45 -16 -36 -31 18 -6 23 -29 70 -51 104 -38 61 -61 78 -71 52 -2 -7
-14 9 -27 35 -19 40 -25 46 -32 33 -12 -22 -1 -76 22 -101 9 -11 25 -40 34
-64 9 -24 24 -54 32 -65 15 -20 15 -19 9 14 -4 19 -9 43 -12 54 -11 41 16 3
37 -51 13 -32 35 -80 48 -108 39 -79 44 -112 19 -136 -12 -10 -24 -18 -27 -16
-3 1 -23 11 -45 22 -22 11 -44 26 -48 33 -4 6 -14 12 -21 12 -14 0 -25 25 -33
75 -13 82 -51 78 -51 -5 -1 -49 0 -50 29 -50 29 0 38 -13 17 -26 -6 -4 -8 -3
-5 3 9 14 -63 15 -80 1 -8 -7 -17 -3 -30 13 -10 13 -30 36 -45 52 -16 16 -28
32 -28 35 -1 4 -18 26 -40 50 l-39 43 -6 -46 c-4 -25 -11 -47 -15 -50 -5 -3
-2 20 5 51 12 52 11 59 -7 93 l-20 36 21 -25 c22 -27 28 -13 10 23 -10 21 -10
21 5 3 9 -11 16 -23 16 -27 0 -4 18 -18 40 -30 22 -13 40 -27 40 -31 0 -10
-10 -5 -53 24 -27 19 -27 19 -27 -3 0 -12 3 -19 7 -16 3 4 12 -2 20 -13 8 -11
22 -20 32 -20 20 0 51 -30 51 -49 0 -13 69 -81 83 -81 4 0 7 9 7 20 0 11 -5
20 -10 20 -6 0 -16 12 -22 28 -7 15 -20 35 -30 45 -23 23 -23 38 2 44 21 6 28
23 9 23 -5 0 -7 5 -4 10 3 6 19 10 36 10 33 0 39 19 9 27 -11 3 -20 9 -20 13
0 20 -60 70 -84 70 -14 0 -26 5 -26 10 0 6 10 8 23 5 29 -7 49 7 41 28 -7 18
-64 24 -64 7 0 -11 -40 30 -57 58 -7 12 -13 34 -14 49 0 26 -2 26 -19 -12 -10
-22 -19 -52 -19 -67 -1 -24 -4 -26 -23 -19 -12 4 -25 14 -29 22 -26 55 -31 70
-25 84 5 15 -28 85 -40 85 -3 0 -2 -6 2 -12 5 -9 3 -9 -9 1 -14 11 -18 11 -23
-3 -9 -24 -25 -19 -19 7 4 16 -6 37 -37 79 -24 31 -48 55 -54 53 -7 -2 -10 4
-7 14 2 10 -3 23 -11 30 -9 8 -16 19 -16 27 0 24 -19 25 -32 0 -45 -82 -96
-167 -125 -207 -36 -51 -39 -59 -20 -59 6 1 30 25 51 55 22 30 42 55 45 55 9
0 121 -148 121 -160 0 -6 -8 -10 -19 -10 -10 0 -24 -7 -31 -15 -16 -19 -33 -9
-25 15 9 29 -24 34 -35 5 -11 -30 -24 -34 -16 -5 3 11 9 29 12 41 5 17 2 20
-13 16 -10 -3 -36 -7 -58 -9 -25 -2 -47 -10 -58 -23 -10 -11 -15 -13 -11 -5 6
13 5 13 -8 0 -68 -68 -126 -151 -132 -189 -7 -47 -39 -102 -83 -143 -30 -29
-115 -60 -138 -52 -7 3 -16 1 -19 -5 -5 -7 -13 -7 -27 2 -17 10 -23 9 -39 -10
-16 -20 -22 -21 -49 -12 -18 6 -34 10 -36 8 -6 -6 64 -99 73 -97 4 1 24 -2 45
-7 23 -4 61 -3 94 4 31 6 58 10 60 8 1 -2 -9 -19 -23 -38 -17 -23 -23 -41 -19
-58 4 -16 -1 -31 -16 -47 -32 -34 -60 -125 -45 -144 7 -8 18 -35 25 -60 7 -25
18 -51 23 -57 8 -10 4 -13 -16 -13 -14 0 -26 -4 -26 -9 0 -5 -9 -7 -20 -4 -11
3 -20 0 -20 -6 0 -6 -6 -11 -14 -11 -7 0 -27 -7 -42 -15 -16 -8 -37 -15 -46
-15 -10 0 -18 -4 -18 -9 0 -5 -10 -11 -23 -15 -17 -4 -34 -27 -60 -78 -68
-135 -68 -201 0 -336 26 -51 43 -74 60 -78 13 -4 23 -10 23 -14 0 -4 16 -11
35 -14 19 -4 35 -11 35 -16 0 -6 11 -10 25 -10 14 0 25 -5 25 -11 0 -6 9 -9
20 -6 11 3 20 1 20 -4 0 -5 20 -9 45 -9 25 0 45 -4 45 -10 0 -5 14 -10 30 -10
17 0 30 -4 30 -10 0 -15 57 -12 63 3 4 9 8 9 15 -2 7 -10 22 -12 51 -8 23 3
41 1 41 -4 0 -5 54 -9 119 -9 82 0 121 -4 123 -12 3 -8 116 -13 421 -16 229
-3 417 -9 417 -13 0 -5 90 -9 200 -9 110 0 200 4 200 9 0 4 188 10 417 13 305
3 418 8 421 16 2 8 41 12 123 12 65 0 119 4 119 9 0 5 18 7 41 4 29 -4 44 -2
51 8 7 11 11 11 15 2 6 -15 63 -18 63 -3 0 6 14 10 30 10 17 0 30 5 30 10 0 6
20 10 45 10 25 0 45 4 45 9 0 5 9 7 20 4 11 -3 20 0 20 6 0 6 11 11 25 11 14
0 25 4 25 10 0 5 16 12 35 16 19 3 35 10 35 14 0 4 10 10 23 14 17 4 34 27 60
78 68 135 68 201 0 336 -26 51 -43 74 -60 78 -13 4 -23 10 -23 14 0 4 -16 11
-35 14 -19 4 -35 11 -35 16 0 6 -11 10 -25 10 -14 0 -25 5 -25 11 0 6 -9 9
-20 6 -11 -3 -20 -1 -20 4 0 5 -7 9 -16 9 -10 0 -3 12 20 34 23 21 36 43 36
59 0 15 26 66 60 119 33 51 60 96 60 100 0 4 17 8 38 8 63 0 76 23 69 121 -5
60 -3 90 8 116 8 20 15 46 15 59 0 24 14 32 24 15 9 -14 58 -20 83 -10 15 5
32 27 44 56 38 87 99 278 99 309 0 30 -25 64 -48 64 -7 0 -2 26 13 69 12 38
33 112 45 165 12 52 29 101 36 107 17 14 20 262 4 303 -5 14 -25 36 -44 48
-20 13 -36 31 -36 42 0 15 3 16 14 7 12 -10 17 -8 26 9 12 22 12 22 33 2 35
-31 63 -42 108 -42 40 0 48 5 98 57 46 50 55 56 64 42 9 -15 16 -13 59 19 l48
36 0 223 0 222 -55 16 -55 16 0 49 c0 56 -13 126 -42 223 -15 50 -18 80 -13
115 7 46 7 46 -12 29 -11 -9 -23 -14 -28 -10 -4 5 -5 3 -2 -3 4 -8 -5 -13 -26
-16 -17 -3 -39 -8 -48 -12 -14 -6 -16 -2 -11 21 5 25 4 27 -12 14 -12 -10 -20
-11 -28 -3 -8 8 -19 7 -40 -4 -16 -8 -41 -14 -56 -12 -21 2 -26 -1 -24 -14 2
-10 -1 -18 -7 -18 -10 0 -71 -88 -71 -102 0 -5 15 -8 33 -6 27 3 33 -1 35 -21
4 -22 2 -23 -40 -15 -68 12 -101 6 -125 -21 l-22 -25 -23 42 c-18 35 -22 60
-23 136 l-1 93 -35 21 -34 20 28 -22 c26 -21 27 -26 27 -105 0 -69 5 -95 27
-147 15 -35 33 -67 40 -71 7 -4 13 -17 13 -27 0 -24 20 -70 31 -70 20 0 17
-41 -7 -84 -25 -46 -28 -48 -58 -40 -52 13 -132 7 -166 -12 -27 -17 -31 -23
-28 -59 2 -33 7 -41 26 -43 14 -2 22 2 22 11 0 8 13 29 30 46 28 31 31 32 88
25 l59 -6 30 53 c28 53 33 56 80 45 13 -3 32 3 46 14 19 15 67 24 67 13 0 -2
-16 -21 -36 -43 -26 -28 -34 -45 -29 -60 5 -15 3 -19 -9 -14 -9 3 -13 11 -10
16 4 6 -3 5 -15 -2 -23 -12 -38 -37 -28 -47 3 -3 13 2 22 11 9 9 22 13 28 9 7
-4 3 -9 -9 -13 -10 -4 -19 -11 -19 -16 -1 -5 -9 -23 -18 -41 -9 -18 -18 -45
-18 -60 -1 -16 -3 -21 -6 -11 -4 14 -13 11 -63 -20 -33 -20 -59 -42 -60 -49 0
-16 -30 -5 -30 11 0 63 -89 115 -196 115 -38 0 -84 5 -103 10 -19 6 -45 8 -59
4 -17 -4 -23 -2 -18 5 21 34 -30 -8 -84 -69 -34 -38 -67 -69 -73 -69 -6 0 2
13 17 28 l27 29 -33 9 c-43 13 -60 54 -34 83 17 19 17 19 -3 14 -29 -7 -42
-35 -35 -72 9 -45 -4 -38 -26 15 -17 38 -23 44 -34 35 -8 -7 -17 -29 -21 -51
-5 -27 -12 -40 -28 -44 -20 -5 -20 -6 5 -26 16 -12 33 -17 43 -14 9 4 20 2 24
-3 3 -5 15 -14 25 -20 18 -10 18 -12 -10 -26 -48 -24 -128 -37 -165 -27 -42
12 -42 12 -34 0 8 -12 11 -12 -56 0 -30 5 -70 12 -89 14 -70 10 -94 17 -149
48 -31 17 -60 35 -66 40 -10 9 84 -25 118 -44 28 -14 33 -2 14 37 -10 21 -31
42 -56 55 -40 20 -56 40 -71 89 -4 14 -11 35 -15 46 -4 11 5 3 19 -17 21 -29
33 -38 56 -38 17 0 29 -3 27 -8 -1 -4 3 -8 8 -10 6 -1 10 6 10 16 0 10 -15 24
-35 34 -61 30 -90 52 -90 71 0 9 -7 17 -15 17 -8 0 -15 5 -15 10 0 6 4 10 9
10 6 0 13 -4 16 -10 3 -5 17 -10 31 -10 21 0 23 2 12 20 -7 10 -26 20 -43 22
-16 2 -28 8 -25 13 2 6 10 9 17 7 17 -4 -17 58 -37 69 -28 14 -55 22 -70 20
-12 -1 -12 0 -2 7 10 7 6 15 -18 36 -34 28 -59 32 -91 15 -16 -8 -18 -13 -8
-25 9 -11 7 -14 -14 -14 -26 0 -129 -50 -159 -77 -10 -9 -18 -11 -18 -5 0 6
-3 17 -6 26 -4 12 0 16 15 16 42 0 121 57 108 77 -3 5 -31 6 -61 3 -60 -7 -64
-3 -46 44 l10 26 -65 0 c-68 0 -172 -31 -181 -55 -4 -10 -11 -10 -35 2 -17 8
-47 17 -68 20 -41 6 -187 -23 -197 -39 -13 -20 7 -79 29 -88 21 -8 20 -9 -5
-9 -21 -1 -28 -6 -28 -21 0 -25 27 -27 33 -2 3 11 5 8 6 -9 0 -15 8 -29 16
-33 16 -6 16 -26 0 -38 -5 -4 20 -8 56 -8 45 0 70 -5 78 -14 8 -10 9 -16 1
-21 -5 -3 -10 -15 -10 -26 0 -25 26 -25 64 0 29 19 29 19 64 -4 35 -24 62 -70
62 -106 0 -10 6 -17 13 -15 6 1 9 1 5 -1 -11 -7 -10 -41 2 -64 9 -15 7 -21 -5
-25 -8 -3 -15 -12 -15 -19 0 -7 -7 -18 -15 -25 -21 -18 -18 -32 12 -54 28 -21
23 -23 61 31 7 10 10 12 7 5 -4 -6 1 -15 9 -18 21 -8 20 -34 -1 -34 -14 0 -14
-2 2 -20 22 -24 16 -25 -33 -3 -20 9 -40 17 -44 17 -4 1 -13 7 -19 14 -7 6
-21 12 -31 12 -11 0 -20 10 -24 26 -5 21 -11 25 -30 21 -23 -4 -51 17 -50 39
1 6 9 18 19 28 9 10 17 30 17 46 0 23 -7 33 -30 45 -17 9 -28 20 -25 25 3 5 0
12 -6 15 -7 5 -10 -6 -8 -33 2 -23 0 -44 -4 -48 -4 -4 -7 -25 -7 -46 0 -30 -6
-44 -26 -61 l-26 -23 104 -119 c157 -181 171 -195 185 -195 8 0 12 -4 9 -9 -3
-4 15 -29 39 -55 25 -25 45 -50 45 -54 0 -10 180 -197 190 -197 4 0 12 -4 17
-9 5 -5 3 -6 -4 -2 -31 18 -8 -16 46 -67 57 -54 83 -91 58 -81 -7 2 -29 -14
-51 -36 -21 -22 -43 -40 -49 -40 -6 0 -3 6 6 13 11 8 17 31 18 76 l3 64 -81
86 c-108 115 -245 269 -352 396 -18 22 -55 63 -80 90 -26 28 -62 69 -81 93
-29 37 -35 40 -49 28 -9 -8 -25 -16 -36 -18 -13 -2 -19 -10 -17 -22 3 -14 0
-16 -17 -7 -11 6 -26 10 -32 9 -7 -2 -19 10 -27 25 -7 16 -21 31 -30 34 -10 4
-25 14 -35 25 -27 27 -35 22 -42 -24 -13 -86 -75 -182 -75 -117 0 49 -61 99
-123 99 -29 0 -39 6 -53 30 -23 38 -40 44 -57 19 -14 -19 -15 -19 -41 11 -26
32 -27 50 0 50 8 0 14 7 14 15 0 9 6 12 15 9 8 -4 15 -1 15 5 0 12 -7 15 -53
25 -25 6 -28 10 -26 44 2 20 -4 47 -12 60 -15 24 -124 82 -155 82 -15 0 -16 2
-5 9 7 5 11 14 7 20 -4 6 3 24 16 41 l23 31 -25 19 c-18 14 -20 20 -9 20 8 0
21 -6 28 -12 11 -11 11 -9 2 10 -9 17 -9 22 0 20 7 -2 19 10 27 26 13 26 13
30 -2 38 -22 12 -20 35 4 48 36 19 21 28 -49 29 -63 1 -70 -1 -76 -20 -6 -17
-9 -19 -16 -8 -11 18 16 39 52 39 30 0 46 14 29 25 -30 19 53 64 118 65 15 0
22 6 22 20 0 26 10 25 43 -5 30 -29 35 -45 12 -45 -8 0 -15 -6 -15 -14 0 -7
-7 -19 -15 -26 -12 -10 -18 -10 -32 1 -17 13 -17 13 -3 -5 14 -18 13 -19 -2
-14 -18 7 -18 -17 0 -64 17 -41 40 -48 90 -27 33 14 44 25 48 48 4 17 6 34 4
38 -2 8 27 21 48 22 7 1 11 -3 7 -8 -8 -13 34 -41 62 -41 54 0 116 60 83 80
-16 10 -15 11 20 28 14 7 17 10 8 8 -10 -3 -20 -1 -23 4 -4 6 -1 10 6 10 7 0
10 3 7 6 -12 12 -46 -16 -64 -53 -10 -21 -17 -41 -16 -44 1 -4 -7 -5 -17 -2
-11 3 -21 13 -24 24 -4 14 -15 19 -44 20 -21 1 -31 3 -23 5 8 3 29 25 45 49
17 25 35 45 40 45 6 0 23 14 38 30 16 17 38 30 50 30 12 0 39 20 64 46 24 26
43 43 43 37 0 -5 -6 -15 -12 -22 -7 -7 8 -1 33 13 36 20 58 25 102 24 61 -3
56 -18 -6 -18 -34 0 -37 -2 -27 -19 7 -14 6 -27 -5 -47 -13 -25 -12 -30 2 -46
8 -10 25 -20 37 -24 11 -3 29 -16 38 -28 l17 -21 -6 25 c-6 24 -6 24 14 8 11
-10 25 -18 31 -18 7 0 12 -7 12 -15 0 -18 26 -20 32 -2 9 24 -4 37 -39 37 -29
0 -33 2 -24 14 19 23 63 27 68 5 3 -10 16 -25 28 -33 22 -15 26 -14 65 19 23
19 51 35 61 35 11 0 22 6 25 14 3 8 17 17 31 21 20 5 23 8 13 20 -7 8 -20 15
-29 14 -10 0 -12 -2 -3 -6 12 -4 -57 -63 -75 -63 -6 0 0 7 56 64 21 22 23 27
11 42 -8 9 -23 20 -35 24 -18 8 -17 9 7 9 17 1 31 -6 37 -18 6 -10 19 -21 29
-23 17 -5 109 33 121 50 3 4 20 8 36 8 68 3 132 19 169 42 35 22 38 26 23 37
-9 7 -17 15 -17 18 0 7 39 2 62 -8 9 -4 22 -3 29 1 8 4 9 3 5 -4 -5 -8 1 -12
18 -12 13 0 46 -9 73 -21 26 -11 60 -19 75 -17 21 4 35 -4 61 -31 48 -51 54
-71 19 -71 l-27 0 21 -18 c24 -20 38 -52 23 -52 -6 0 -24 9 -40 21 -16 11 -46
23 -66 26 -21 3 -46 12 -55 20 -9 9 -25 12 -36 8 -11 -3 -23 -1 -27 5 -3 5 2
10 12 11 13 0 12 3 -7 10 -14 6 -49 8 -79 5 -57 -7 -151 -42 -151 -58 0 -18
27 -18 65 1 21 10 45 17 51 14 7 -2 27 3 44 12 18 9 34 14 37 12 2 -3 -5 -11
-17 -17 -16 -9 -19 -15 -11 -23 6 -6 11 -22 11 -35 0 -17 4 -22 18 -18 57 16
82 17 80 4 -2 -7 -7 -16 -13 -20 -5 -4 -2 -14 8 -26 9 -10 17 -25 17 -33 0 -8
-10 1 -21 19 -12 17 -27 32 -35 32 -19 0 -84 -32 -84 -42 0 -5 16 -16 35 -25
28 -13 39 -14 60 -5 24 11 36 0 15 -13 -6 -4 -5 -12 4 -21 12 -11 20 -12 40
-3 14 7 23 15 21 19 -3 4 4 17 15 29 13 16 27 21 47 19 l28 -3 -30 -17 -30
-17 74 -1 c82 0 89 -5 21 -14 -63 -9 -113 -21 -135 -33 -16 -9 -15 -11 13 -18
18 -3 32 -12 32 -19 0 -7 11 -25 24 -39 13 -14 20 -27 16 -29 -5 -2 -2 -18 6
-36 l14 -34 30 34 c17 18 33 41 36 50 7 23 24 23 24 0 0 -20 -66 -92 -84 -92
-15 1 -56 36 -56 49 0 6 -7 11 -15 11 -28 0 -15 -30 25 -55 34 -22 60 -51 60
-70 0 -3 -13 8 -30 25 -27 28 -50 39 -50 24 0 -10 59 -62 106 -94 l44 -29 0
23 c0 17 7 26 24 30 35 9 44 65 15 89 -12 9 -16 17 -10 17 7 0 9 6 5 13 -4 6
7 -1 24 -17 29 -27 35 -28 84 -23 48 6 51 5 34 -8 -11 -8 -23 -15 -28 -15 -4
0 -7 -4 -5 -8 1 -5 -13 -23 -30 -41 -18 -18 -33 -38 -33 -46 0 -7 24 -24 53
-39 54 -26 97 -34 97 -17 0 5 13 11 29 14 18 4 31 14 35 29 6 23 7 23 36 -11
26 -30 32 -33 64 -27 26 5 43 2 58 -9 36 -24 46 -18 52 33 9 75 7 72 28 61 34
-18 19 9 -26 45 -32 27 -52 36 -80 36 -22 0 -53 10 -77 26 -23 14 -43 23 -46
21 -8 -8 63 -57 83 -57 23 0 57 -20 35 -20 -7 0 -1 -10 15 -22 16 -12 32 -26
35 -31 4 -5 9 -3 11 4 3 8 4 -4 3 -26 -4 -69 -3 -68 -29 -48 -14 10 -20 21
-14 24 12 8 -49 38 -73 36 -9 0 -48 24 -87 53 -63 47 -69 55 -55 65 10 7 23
10 31 7 8 -3 18 1 22 8 6 10 -7 20 -48 37 -31 13 -67 23 -79 23 -36 0 -36 19
-1 34 47 20 201 55 213 47 14 -8 140 -10 153 -2 26 16 13 112 -20 148 -26 28
-26 63 0 133 14 37 17 59 11 67 -17 20 -172 91 -214 99 -22 4 -49 11 -59 17
-19 9 -19 10 -1 23 10 8 37 14 58 14 40 0 40 0 22 20 -30 33 -171 120 -279
171 -182 86 -375 144 -577 173 -132 20 -447 20 -574 0z m-299 -605 c3 -5 17
-2 32 7 26 16 26 15 -3 -10 -148 -132 -151 -135 -131 -103 l18 27 -30 0 c-17
0 -32 -5 -34 -12 -3 -8 -18 -1 -43 20 l-39 32 -12 -28 c-7 -15 -13 -21 -13
-14 -1 7 -15 12 -33 13 l-33 1 35 10 c32 9 33 11 17 23 -16 12 -15 13 10 20
15 3 32 12 36 18 6 8 7 6 3 -5 -4 -15 1 -18 30 -18 24 0 33 4 28 11 -5 8 8 10
44 6 36 -4 54 -1 62 8 11 13 46 10 56 -6z m-729 -1012 c-19 -24 -67 -65 -106
-91 -39 -26 -71 -53 -71 -59 0 -24 58 -97 77 -97 17 0 16 -26 -2 -86 -20 -66
-19 -96 6 -144 12 -23 24 -61 27 -86 5 -43 4 -44 -24 -43 -29 0 -29 0 -5 10
l25 10 -24 16 c-54 38 -87 90 -76 120 3 7 -3 22 -13 32 -28 28 -45 86 -32 110
7 12 7 21 1 23 -9 3 -7 20 17 168 4 20 8 27 10 18 7 -27 48 -6 97 49 43 49
116 106 124 98 3 -2 -11 -24 -31 -48z m2005 -326 c-8 -23 -7 -32 4 -41 11 -10
15 -7 23 11 5 13 18 32 29 42 28 26 89 14 105 -20 9 -20 12 -22 19 -8 12 20
28 10 28 -17 0 -11 7 -26 16 -32 13 -10 11 -19 -16 -79 -29 -60 -35 -67 -61
-67 -25 0 -32 7 -59 60 -17 33 -34 60 -38 60 -4 0 -22 13 -40 28 -31 26 -32
29 -21 65 6 22 13 36 16 33 3 -3 1 -18 -5 -35z m-435 -346 c3 -9 -2 -24 -12
-35 -9 -10 -14 -24 -10 -30 4 -6 4 -22 1 -35 -5 -18 -11 -22 -28 -17 l-22 5
22 -28 c25 -32 21 -41 -26 -55 -24 -6 -32 -6 -30 3 3 14 -20 59 -36 69 -6 4
-25 8 -43 8 -17 0 -34 4 -37 9 -3 5 -16 7 -29 5 -20 -4 -20 -4 -2 4 19 9 19 9
-2 20 -12 7 -39 16 -60 21 -33 8 -34 9 -10 10 25 1 74 -20 120 -52 15 -10 20
-9 30 4 21 27 45 30 61 7 21 -29 31 -16 27 36 -2 34 2 47 16 55 27 15 63 13
70 -4z m1063 -86 c-6 -41 -11 -83 -13 -93 -1 -14 6 -22 23 -26 25 -7 25 -7 -5
-11 -24 -3 -31 -10 -36 -34 -3 -19 0 -36 9 -48 13 -14 13 -24 3 -59 -10 -31
-10 -43 -2 -46 19 -6 41 -59 43 -102 1 -30 -5 -47 -22 -65 -22 -24 -25 -24
-34 -8 -5 10 -18 25 -28 34 -9 9 -15 19 -11 23 3 3 1 6 -6 6 -9 0 -12 -9 -9
-25 3 -14 1 -25 -3 -25 -13 0 -11 132 2 150 7 11 9 0 5 -39 -3 -39 -2 -51 6
-43 19 19 22 114 5 137 -12 16 -17 17 -31 6 -13 -11 -15 -10 -11 7 2 15 -5 24
-26 33 -20 8 -26 15 -18 19 6 5 9 17 6 29 -3 12 -1 24 4 27 5 3 9 -3 9 -12 0
-16 2 -15 20 4 32 34 24 46 -45 72 -70 26 -81 39 -17 19 l40 -12 71 71 c39 38
71 76 71 83 0 7 2 10 5 7 3 -2 0 -38 -5 -79z m540 30 c0 -22 -5 -32 -20 -36
-11 -3 -20 -13 -21 -22 -1 -32 -46 -156 -56 -154 -6 1 -21 -23 -34 -55 -12
-31 -37 -87 -56 -124 -18 -37 -33 -79 -33 -93 0 -14 -5 -25 -10 -25 -28 0 -18
41 37 158 34 70 75 170 93 222 22 66 42 105 64 126 17 17 32 32 34 33 1 0 2
-13 2 -30z m-734 -802 c-2 -11 2 -30 10 -43 9 -13 13 -32 9 -43 -3 -11 1 -41
10 -66 23 -69 17 -120 -18 -140 -17 -10 -26 -23 -23 -31 3 -7 -4 -18 -14 -24
-11 -6 -20 -17 -20 -25 0 -8 -7 -15 -15 -15 -14 0 -20 17 -15 50 2 20 50 65
50 48 0 -7 7 0 15 16 16 31 13 62 -5 51 -6 -4 -10 7 -10 25 0 17 -7 38 -15 46
-8 8 -12 21 -8 29 3 9 0 22 -6 29 -16 19 -4 83 20 115 11 13 19 33 20 45 1 14
4 10 11 -13 5 -19 7 -43 4 -54z m-1468 -55 c-2 -11 -15 -16 -43 -16 -36 -1
-40 -4 -43 -28 -3 -25 0 -28 27 -28 19 0 31 -5 31 -13 0 -7 -12 -13 -27 -12
-26 0 -28 -3 -31 -42 l-3 -43 42 0 c30 0 50 6 67 23 l24 22 -18 -37 -17 -37
-77 -3 -77 -3 15 23 c12 18 14 41 8 107 -3 46 -8 89 -11 97 -4 10 10 12 65 10
59 -3 71 -6 68 -20z m208 -48 c13 -38 35 -90 48 -116 l25 -48 -42 1 c-23 1
-34 3 -24 6 21 5 21 5 3 48 -14 33 -18 35 -61 35 -40 0 -47 -3 -56 -27 -6 -16
-11 -36 -12 -45 -1 -13 -10 -18 -31 -18 -27 0 -28 1 -13 18 16 17 73 153 79
188 3 20 23 33 46 29 7 -1 24 -33 38 -71z m272 50 c3 -20 1 -21 -35 -11 -30 7
-46 6 -75 -6 -107 -45 -50 -195 65 -173 34 6 37 10 37 39 0 18 -5 38 -12 45
-9 9 -5 12 17 12 l30 0 -3 -59 -4 -59 -46 -6 c-80 -10 -146 17 -168 69 -20 48
-17 84 9 122 26 39 62 52 132 50 43 -2 50 -5 53 -23z m112 14 c0 -4 -4 -10
-10 -13 -14 -9 -13 -168 2 -183 15 -15 40 -15 72 -1 31 15 43 77 29 150 l-10
49 33 0 c32 0 33 -1 24 -26 -15 -37 -13 -177 3 -193 10 -10 4 -12 -28 -11 -22
1 -57 -2 -77 -5 -33 -7 -41 -4 -68 23 -29 29 -30 34 -30 113 0 62 -4 85 -15
93 -12 9 -6 11 30 11 25 0 45 -3 45 -7z m256 2 c36 0 54 -4 54 -12 0 -8 -14
-13 -37 -13 -35 0 -38 -2 -41 -32 -3 -31 -1 -33 27 -33 21 0 31 -5 31 -15 0
-10 -10 -15 -30 -15 -28 0 -30 -2 -30 -40 0 -40 0 -40 39 -40 22 0 46 7 54 15
19 19 27 10 18 -23 -7 -27 -9 -27 -89 -27 -73 0 -101 7 -72 17 5 2 10 46 12
100 1 72 -2 100 -12 114 -14 16 -13 17 3 11 10 -4 43 -7 73 -7z m-1245 -238
c-5 -10 -10 -80 -13 -158 l-3 -141 57 3 c38 1 71 10 94 23 l35 21 -6 -22 c-20
-67 -28 -73 -80 -72 -28 1 -83 2 -124 3 -72 1 -73 1 -51 19 22 18 22 20 15
175 -4 86 -11 157 -16 157 -5 0 -9 3 -9 8 0 4 25 5 55 4 47 -3 54 -6 46 -20z
m1587 -11 c3 -29 1 -33 -15 -26 -32 15 -90 17 -112 5 -16 -8 -21 -19 -19 -38
2 -22 15 -33 69 -59 79 -37 109 -71 109 -123 0 -64 -61 -102 -163 -101 -74 1
-97 13 -97 52 l0 30 31 -16 c69 -36 165 -9 163 45 -1 22 0 22 13 4 12 -17 15
-17 29 -2 22 22 8 41 -23 33 -31 -7 -187 64 -202 94 -14 25 -14 67 -1 91 19
36 60 50 140 47 l75 -2 3 -34z m-1260 -47 c3 -20 0 -21 -42 -17 -46 6 -46 6
-46 -26 0 -28 3 -31 30 -31 23 0 30 -4 30 -20 0 -16 -7 -20 -30 -20 -16 0 -30
-4 -30 -9 0 -5 -3 -22 -6 -38 -5 -28 -3 -31 26 -36 19 -4 45 -1 67 8 32 13 34
13 29 -1 -3 -9 -6 -22 -6 -30 0 -11 -19 -14 -92 -14 -86 0 -90 1 -75 18 12 13
14 35 11 107 -3 50 -6 100 -8 113 -3 22 -1 23 68 20 64 -3 71 -5 74 -24z m262
0 c0 -20 -4 -25 -16 -20 -40 15 -66 17 -99 6 -43 -14 -67 -47 -68 -96 -1 -29
5 -42 31 -65 26 -24 41 -29 82 -29 l50 0 0 37 c0 20 -7 44 -15 53 -14 16 -12
17 22 15 l38 -3 -2 -63 -1 -64 -40 -9 c-64 -14 -129 1 -168 37 -28 26 -36 42
-41 84 -10 93 45 143 160 143 66 0 67 -1 67 -26z m192 2 c4 -22 3 -23 -39 -18
-43 5 -43 4 -43 -27 0 -28 3 -31 30 -31 23 0 30 -5 30 -19 0 -15 -8 -21 -32
-23 -30 -3 -33 -6 -36 -39 -3 -33 -1 -37 27 -42 36 -7 79 6 98 31 10 14 10 10
-1 -23 l-13 -40 -89 -3 c-83 -3 -88 -2 -73 14 14 14 16 32 12 118 -3 55 -10
107 -16 114 -7 9 7 12 66 12 71 0 75 -1 79 -24z m152 -41 c28 -33 63 -76 78
-95 l27 -35 -2 82 c-2 45 -6 85 -10 89 -15 16 -5 24 28 24 34 0 46 -12 25 -25
-6 -4 -10 -57 -10 -126 0 -65 -3 -119 -7 -119 -14 0 -27 14 -102 103 -40 49
-75 86 -78 83 -10 -10 -4 -147 7 -161 11 -13 6 -15 -30 -15 -41 0 -42 1 -26
19 14 15 16 34 12 116 -3 54 -11 104 -18 112 -10 12 -7 14 22 11 27 -2 44 -15
84 -63z m370 40 c39 -26 56 -70 47 -120 -17 -91 -52 -115 -168 -115 -60 0 -74
3 -65 12 17 17 16 219 0 237 -22 23 150 9 186 -14z"/>
<path d="M2995 1199 c-4 -49 -5 -92 -2 -95 10 -10 90 16 113 37 54 50 8 149
-69 149 l-35 0 -7 -91z"/>
<path d="M182 4273 c-18 -8 -46 -31 -62 -50 -25 -28 -30 -42 -30 -86 0 -57 12
-81 47 -92 18 -5 33 3 71 39 41 38 49 53 60 104 14 68 10 88 -21 96 -29 8 -27
8 -65 -11z"/>
<path d="M3950 4235 c13 -14 39 -30 57 -37 44 -16 39 -35 -14 -64 l-42 -22 29
-12 c16 -7 36 -10 45 -6 22 8 18 -3 -7 -25 -18 -14 -19 -18 -7 -19 8 0 23 -16
32 -35 9 -19 21 -35 27 -35 5 0 10 -23 10 -50 0 -48 1 -50 20 -40 11 6 20 18
20 26 0 13 7 11 38 -7 20 -13 41 -28 45 -33 5 -6 6 11 4 37 -3 35 -12 56 -32
77 -23 24 -26 32 -15 45 12 14 11 28 -6 70 -7 18 -6 19 12 6 16 -13 16 -12 -2
8 -11 12 -33 23 -48 24 -15 1 -35 12 -44 24 -19 24 -118 93 -135 93 -6 0 0
-11 13 -25z"/>
<path d="M1923 2743 c-19 -41 -13 -113 10 -113 15 0 36 -32 37 -56 0 -24 28
-51 95 -90 47 -27 48 -27 62 -8 8 10 16 18 18 17 13 -7 22 -1 37 25 13 22 14
30 4 45 -15 19 -70 59 -101 71 -13 5 -15 10 -7 13 14 6 16 33 2 33 -6 0 -15
11 -20 24 -9 25 -65 52 -75 35 -10 -15 -22 -10 -28 11 -7 27 -20 25 -34 -7z"/>
</g>
</svg>
